<svg xmlns="http://www.w3.org/2000/svg" viewBox="0 0 697.3 200.05"><defs><style>.cls-1{fill:#4dd2ff;}.cls-2{isolation:isolate;}.cls-3{fill:#333;}</style></defs><g id="レイヤー_2" data-name="レイヤー 2"><g id="レイヤー_1-2" data-name="レイヤー 1"><g id="レイヤー_2-2" data-name="レイヤー 2"><g id="レイヤー_1-2-2" data-name="レイヤー 1-2"><polygon class="cls-1" points="81.62 97.6 27.08 66.97 20.39 70.73 81.53 105.06 143.56 70.23 136.96 66.53 81.62 97.6"/><polygon class="cls-1" points="81.64 111.23 47.06 91.82 40.05 95.75 81.45 119 123.46 95.42 116.64 91.59 81.64 111.23"/><path class="cls-1" d="M81.16,91.8,0,46.23,82.35,0l81.16,45.57Z"/><g class="cls-2"><path class="cls-3" d="M189.73,33.52c0-20.07,16.33-33.39,39.6-33.39,10.12,0,21.13,2.84,28.59,7.64,4.62,3,6.57,5.5,6.57,9.23,0,5.33-4.61,12.25-10.12,12.25-2,0-3.73-1.06-7.46-3-5.86-3-11.19-5.16-17.76-5.16-9.94,0-15.63,5-15.63,11.19,0,17.94,53.46,14.57,53.46,52.39,0,21.85-17.58,34.81-41.2,34.81-11.37,0-21.49-2.66-30.55-8.88-4.44-3-6.75-6-6.75-9.76,0-5.51,5.15-12.26,10.3-12.26,2.49,0,4.44,1.24,8,3.38,5.68,3.37,11.18,6.57,19.18,6.57,10.12,0,17.22-5,17.22-12.61C243.18,65.48,189.73,69.75,189.73,33.52Z"/><path class="cls-3" d="M313,55.36a35.65,35.65,0,0,0-14.74,3.55c-3,1.42-5.33,2.49-7.46,2.49-5.51,0-9.06-6.57-9.06-11.19,0-3.37,1.95-5.86,6.39-8.35,7.46-4.08,16.88-6,27-6,12.79,0,22.2,3.19,27.53,9.41,3.73,4.44,5.5,11.19,5.5,19.89v43.51c0,6.75-3.19,9.77-11.54,9.77-7.11,0-10-2.13-10-7.28v-1.42c-5.15,5.86-12.43,8.7-22,8.7-16.34,0-26.28-8.88-26.28-23.09,0-16,12.78-25,46.88-28.06V66C325.23,59.27,322.21,55.36,313,55.36ZM302.5,93.19c0,4.08,2.66,7.28,9.41,7.28a20.74,20.74,0,0,0,13.32-5V81.11C310,83.07,302.5,86.26,302.5,93.19Z"/><path class="cls-3" d="M398.05,55.36a35.58,35.58,0,0,0-14.74,3.55c-3,1.42-5.33,2.49-7.46,2.49-5.51,0-9.06-6.57-9.06-11.19,0-3.37,1.95-5.86,6.39-8.35,7.46-4.08,16.87-6,27-6,12.78,0,22.2,3.19,27.53,9.41,3.72,4.44,5.5,11.19,5.5,19.89v43.51c0,6.75-3.2,9.77-11.54,9.77-7.11,0-9.95-2.13-9.95-7.28v-1.42c-5.15,5.86-12.43,8.7-22,8.7-16.34,0-26.28-8.88-26.28-23.09,0-16,12.78-25,46.88-28.06V66C410.3,59.27,407.28,55.36,398.05,55.36ZM387.57,93.19c0,4.08,2.66,7.28,9.41,7.28a20.74,20.74,0,0,0,13.32-5V81.11C395,83.07,387.57,86.26,387.57,93.19Z"/><path class="cls-3" d="M449.9,33.52C449.9,13.45,466.24.13,489.51.13,499.63.13,510.64,3,518.1,7.77c4.62,3,6.57,5.5,6.57,9.23,0,5.33-4.62,12.25-10.12,12.25-1.95,0-3.73-1.06-7.46-3-5.86-3-11.19-5.16-17.76-5.16-9.95,0-15.63,5-15.63,11.19,0,17.94,53.46,14.57,53.46,52.39,0,21.85-17.58,34.81-41.2,34.81-11.37,0-21.49-2.66-30.55-8.88-4.44-3-6.75-6-6.75-9.76,0-5.51,5.15-12.26,10.3-12.26,2.49,0,4.44,1.24,8,3.38,5.69,3.37,11.19,6.57,19.18,6.57,10.13,0,17.23-5,17.23-12.61C503.36,65.48,449.9,69.75,449.9,33.52Z"/><path class="cls-3" d="M593.58,108.82v-2c-4.44,7.29-13,11.72-23.8,11.72-9.77,0-17.58-3.55-22.37-11-3.2-5-4.8-11.9-4.8-20.6V45.77c0-6.39,3.91-9.59,11.9-9.59s11.9,3.2,11.9,9.59V83.24c0,4.09.53,7.64,2.31,10,2.13,3,5.5,4.62,10.3,4.62,5.5,0,10.3-2.14,13.32-6.22V45.77c0-6.39,3.91-9.59,11.9-9.59s11.9,3.2,11.9,9.59v63c0,6.39-3.91,9.59-11.37,9.59C596.42,118.41,593.4,114.5,593.58,108.82Z"/><path class="cls-3" d="M633.36,60.33c0-14.2,11.19-24.5,31.79-24.5,10.48,0,18.12,2.3,24.33,5.86,4.09,2.3,6.4,5,6.4,8.52,0,4.44-3.55,11-9.41,11-1.78,0-3.38-.71-7.46-2.48-5.86-2.49-10.66-3.91-15.1-3.91-4.79,0-7.81,1.77-7.81,5,0,11,41.2,6.39,41.2,34.28,0,15.09-11.72,24.68-32.5,24.68-10.66,0-18.12-2.13-25.58-6.57-4.26-2.48-6.57-5.33-6.57-9.06,0-4.08,3.2-11,9.59-11,2.31,0,4.44,1.07,7.11,2.49,5.5,2.84,10.12,5.15,16.34,5.15,5.32,0,8.88-1.78,8.88-5.33C674.57,82.89,633.36,87.68,633.36,60.33Z"/></g><g class="cls-2"><path class="cls-3" d="M306.49,177.86a11.58,11.58,0,0,0,6.37-1.68c1.4-.84,2.38-1.61,3.5-1.61,2.31,0,4.55,2.87,4.55,5,0,1.82-1.54,3.5-3.85,4.83a22.57,22.57,0,0,1-11.27,2.8c-12.32,0-21.77-8.54-21.77-23.66s9.38-23.38,21.7-23.38a23.17,23.17,0,0,1,11.34,2.73c2.31,1.33,3.85,3,3.85,4.76,0,2.24-2.38,5.18-4.76,5.18-1.12,0-2.1-.77-3.5-1.61a12.35,12.35,0,0,0-6.51-1.68c-6.09,0-11.2,4.06-11.2,13.93S300.19,177.86,306.49,177.86Z"/><path class="cls-3" d="M341.14,153.85c10.15,0,16.45,6.58,16.45,16.52,0,10.22-6.58,16.8-16.73,16.8s-16.45-6.58-16.45-16.52C324.41,160.43,331,153.85,341.14,153.85Zm-.07,24.85c3.57,0,5.74-3.08,5.74-8,0-5.25-2.31-8.33-5.88-8.33s-5.74,3.08-5.74,8.05C335.19,175.62,337.5,178.7,341.07,178.7Z"/><path class="cls-3" d="M373.48,158.4v.28c1.89-2.94,5-4.48,9.24-4.48,4,0,7.14,1.33,9.1,4.41a14.89,14.89,0,0,1,1.89,8v16q0,4.2-5.25,4.2t-5.25-4.2V168.41a6,6,0,0,0-.77-3.29,4.14,4.14,0,0,0-3.78-1.75,6.17,6.17,0,0,0-4.62,1.89v17.36q0,4.2-5.25,4.2t-5.25-4.2V158.4q0-4.2,5-4.2C372.22,154.2,373.55,156,373.48,158.4Z"/><path class="cls-3" d="M399.73,164c0-5.67,4.41-9.94,13.09-9.94a20.17,20.17,0,0,1,9.87,2.31c1.61.91,2.59,2,2.59,3.5,0,2-1.47,4.83-4,4.83a8,8,0,0,1-3-.91,16.75,16.75,0,0,0-6-1.54c-1.54,0-2.52.49-2.52,1.47,0,4.06,16.24,2.31,16.24,13.37,0,5.95-4.69,9.87-13.44,9.87a19.33,19.33,0,0,1-10.29-2.59c-1.75-1.05-2.8-2.17-2.8-3.78s1.33-4.9,4.13-4.9a6.61,6.61,0,0,1,3,1c2.17,1.12,4,2.1,6.44,2.1,1.82,0,2.94-.49,2.94-1.61C416,173,399.73,174.78,399.73,164Z"/><path class="cls-3" d="M451.6,182.62v-.28c-1.68,2.8-5,4.48-9.24,4.48-3.85,0-6.93-1.4-8.82-4.41a14.89,14.89,0,0,1-1.89-8v-16q0-4.2,5.25-4.2t5.25,4.2v14.28a5.94,5.94,0,0,0,.77,3.43,4.12,4.12,0,0,0,3.64,1.61,5.72,5.72,0,0,0,4.48-2V158.4q0-4.2,5.25-4.2t5.25,4.2v24.22q0,4.2-5,4.2C452.86,186.82,451.53,185.07,451.6,182.62Z"/><path class="cls-3" d="M479.74,182.62q0,4.2-5.25,4.2t-5.25-4.2V143.28q0-4.2,5.25-4.2t5.25,4.2Z"/><path class="cls-3" d="M511,182.41a3.22,3.22,0,0,1-1.75,3,15.44,15.44,0,0,1-7.14,1.54c-5,0-8.47-2-10.15-5-1.4-2.59-1.54-5.67-1.54-8.89v-9.45h-2q-4.2,0-4.2-4.41c0-2.87,1.4-4.34,4.2-4.34h2v-5.74q0-4.2,5.25-4.2t5.25,4.2v5.74h5.18q4.2,0,4.2,4.41c0,2.87-1.4,4.34-4.2,4.34H501V173a9.21,9.21,0,0,0,.56,3.85,2.31,2.31,0,0,0,2.31,1.26,14,14,0,0,0,2-.21,10,10,0,0,1,1.61-.21C510.26,177.65,511,180.73,511,182.41Z"/><path class="cls-3" d="M521.6,151.19a5.89,5.89,0,1,1,6-5.88A5.66,5.66,0,0,1,521.6,151.19Zm5.25,31.43q0,4.2-5.25,4.2t-5.25-4.2V158.4q0-4.2,5.25-4.2t5.25,4.2Z"/><path class="cls-3" d="M544.49,158.4v.28c1.89-2.94,5-4.48,9.24-4.48,4,0,7.14,1.33,9.1,4.41a14.89,14.89,0,0,1,1.89,8v16q0,4.2-5.25,4.2t-5.25-4.2V168.41a6,6,0,0,0-.77-3.29,4.14,4.14,0,0,0-3.78-1.75,6.17,6.17,0,0,0-4.62,1.89v17.36q0,4.2-5.25,4.2t-5.25-4.2V158.4q0-4.2,5-4.2C543.23,154.2,544.56,156,544.49,158.4Z"/><path class="cls-3" d="M600.14,162.6H597.9a14.78,14.78,0,0,1,.14,1.82c0,6.44-5.46,10.57-13.23,10.57-.91,0-1.82-.07-2.66-.14a2.59,2.59,0,0,0-.7,1.82c0,1.54,1.33,2.17,4.41,2.17,5.18,0,8.89.35,11.69,2.17,2.52,1.61,3.78,4.06,3.78,7.49,0,6.65-4.62,11.55-16,11.55-10.29,0-16.38-3.85-16.38-9.38,0-3.22,2-5.53,5.67-6.93a6.38,6.38,0,0,1-2.17-4.83c0-2.66,1.4-4.62,4-5.88a9.63,9.63,0,0,1-5.18-8.61c0-6.37,5.6-10.43,13.58-10.43a15.88,15.88,0,0,1,9.1,2.52,9.17,9.17,0,0,1,5.39-1.75c2.73,0,4,1.26,4,4.06Q603.29,162.6,600.14,162.6Zm-18.48,23.73a3.82,3.82,0,0,0-2,3.22c0,1.89,1.68,3.22,5.74,3.22s6-1.47,6-3.43c0-2.17-2-2.87-6.93-2.87C583.69,186.47,582.36,186.4,581.66,186.33Zm7.28-21.84c0-2.17-1.47-3.57-4.13-3.57s-4.13,1.4-4.13,3.57,1.47,3.64,4.13,3.64S588.94,166.73,588.94,164.49Z"/></g></g></g></g></g></svg>