<svg id="Layer_1" transform="scale(1.5)" viewBox="0 0 512 512" xmlns="http://www.w3.org/2000/svg"><style>.svg_color{fill:#666;}</style><title></title><path class="svg_color" d="M256,331.59a5.24,5.24,0,0,0-5.24,5.25v79.58a5.24,5.24,0,0,0,10.48,0V336.84A5.24,5.24,0,0,0,256,331.59Z"></path><path class="svg_color" d="M346.66,181.67h-5.29a37.23,37.23,0,0,0-48.27-56.55,37.17,37.17,0,0,0-74.19,0,36.93,36.93,0,0,0-22.44-7.69,37.28,37.28,0,0,0-25.84,64.23h-5.29a32.79,32.79,0,0,0-32.76,32.75v56.72a34.16,34.16,0,0,0,28.86,33.71v74.74a5.25,5.25,0,0,0,10.49,0V300.12s0-.07,0-.11v-85.7a5.24,5.24,0,1,0-10.48,0v79.83a23.63,23.63,0,0,1-18.41-23V214.42a22.3,22.3,0,0,1,22.28-22.27h31.13a37,37,0,0,0,23-8.12,37.16,37.16,0,0,0,10.73,34.46h-5.28a32.8,32.8,0,0,0-32.76,32.76v48.66s0,.07,0,.1v79.58a5.25,5.25,0,0,0,10.49,0V332.35a33.86,33.86,0,0,0,18.4,9.32v74.75a5.25,5.25,0,0,0,10.49,0V336.84s0-.07,0-.11V251.14a5.25,5.25,0,0,0-10.49,0V331a23.63,23.63,0,0,1-18.36-23V251.25A22.29,22.29,0,0,1,224.89,229h62.24a22.29,22.29,0,0,1,22.27,22.27V308A23.62,23.62,0,0,1,291,331V251.14a5.25,5.25,0,0,0-10.49,0v85.7a.43.43,0,0,1,0,.05v79.53a5.25,5.25,0,0,0,10.49,0V341.67a33.84,33.84,0,0,0,18.38-9.3v47.22a5.25,5.25,0,0,0,10.49,0V251.25a32.8,32.8,0,0,0-32.76-32.76h-5.28a37.17,37.17,0,0,0,11.52-26.87,37.82,37.82,0,0,0-.78-7.57,36.93,36.93,0,0,0,22.94,8.1h31.13a22.3,22.3,0,0,1,22.28,22.27v56.72a23.63,23.63,0,0,1-18.41,23V214.31a5.24,5.24,0,1,0-10.48,0V300s0,.07,0,.11v79.47a5.25,5.25,0,0,0,10.49,0V304.85a34.16,34.16,0,0,0,28.86-33.71V214.42A32.79,32.79,0,0,0,346.66,181.67ZM256,100.83a26.81,26.81,0,0,1,1.47,53.59c-.5,0-1-.15-1.47-.15s-1,.13-1.47.15A26.81,26.81,0,0,1,256,100.83Zm-59.54,80.84a26.87,26.87,0,1,1,26.86-26.87A26.9,26.9,0,0,1,196.47,181.67ZM256,218.49a26.81,26.81,0,0,1-1.47-53.59c.5,0,1,.15,1.47.15s1-.13,1.47-.15A26.81,26.81,0,0,1,256,218.49Zm32.66-63.69a26.87,26.87,0,1,1,26.86,26.87A26.89,26.89,0,0,1,288.67,154.8Z"></path></svg>
