<svg id="レイヤー_1" data-name="レイヤー 1" xmlns="http://www.w3.org/2000/svg" viewBox="0 0 177.83 128.4"><defs><style>.cls-1{fill:#d9e7ff;}.cls-2{fill:#b5d1fa;}.cls-3{fill:#6e9af4;}.cls-4{fill:#80b5fa;}.cls-5{fill:#010131;}.cls-6{fill:#424eee;}.cls-7{fill:#354aca;}.cls-8{fill:#ff9391;}.cls-9{fill:#5080d1;}.cls-10{fill:#ff7367;}.cls-11{fill:#233bc0;}.cls-12{fill:#fff;}.cls-13{fill:#ff6868;}.cls-14{fill:#01011c;}.cls-15{fill:#fd7e7e;}.cls-16{fill:#040156;}.cls-17{fill:#fd4d4d;}.cls-18{fill:#a0c7fa;}</style></defs><ellipse class="cls-1" cx="87.6" cy="123.29" rx="77.71" ry="5.11"/><path class="cls-1" d="M232.68,110.39a47.92,47.92,0,0,0,4.51-17.1c1.2-12.48,2.51-27.8-4.4-39.07-3.67-6-10.64-11.16-15.69-16Q208.52,29.93,199.66,22C183.86,7.79,165.74-3.45,143.85,2.74c-6.9,2-13.54,5.26-20.7,5.68-9.56.56-22-5.11-29.61,3.17a27.7,27.7,0,0,0-5.25,9.57c-3.44,9.45-5.15,19.41-8.38,28.92C75.06,64.32,58.69,77.36,60.45,93.25c.9,8.17,6.9,21.36,13.89,25.69,14.35,8.86,33.23,4.88,49.75,5.28,22.38.55,44.7-1.06,67,.63C207,126.05,224.36,126.76,232.68,110.39Z" transform="translate(-60.32 -1)"/><path class="cls-2" d="M105.87,99.71l0,0a.24.24,0,0,0,.13-.33C91.17,66.07,78.55,42.83,70.5,33.94a5.05,5.05,0,0,1-.36-.41.26.26,0,0,0-.42.29c.07.1.2.24.4.46,8,8.85,20.61,32,35.47,65.29A.24.24,0,0,0,105.87,99.71Z" transform="translate(-60.32 -1)"/><path class="cls-2" d="M65.53,32.77c1,1,5.26,2.48,5.54,2.21s-1-4.64-1.94-5.63a2.48,2.48,0,1,0-3.6,3.42Z" transform="translate(-60.32 -1)"/><path class="cls-2" d="M73.78,35.1c-.23,1.38,1.21,5.82,1.6,5.88s3.18-3.67,3.41-5.06a2.54,2.54,0,1,0-5-.82Z" transform="translate(-60.32 -1)"/><path class="cls-2" d="M70,43.67c1.4-.09,5.4-2.49,5.37-2.89s-4.3-2.27-5.7-2.18A2.54,2.54,0,1,0,70,43.67Z" transform="translate(-60.32 -1)"/><path class="cls-2" d="M88.63,56.52c-.63,2.27,1,9.93,1.61,10.11s6-5.56,6.6-7.82a4.26,4.26,0,1,0-8.21-2.29Z" transform="translate(-60.32 -1)"/><path class="cls-2" d="M80.74,70.14c2.35.1,9.45-3.17,9.48-3.85s-6.75-4.56-9.11-4.67a4.26,4.26,0,0,0-.37,8.52Z" transform="translate(-60.32 -1)"/><path class="cls-2" d="M95.82,64.4c-1.37,2.54-1.53,12.11-.81,12.5s8.63-5,10-7.56a5.21,5.21,0,1,0-9.18-4.94Z" transform="translate(-60.32 -1)"/><path class="cls-2" d="M84.33,82.37c2.88-.17,11.12-5.05,11.07-5.87S86.6,71.79,83.72,72a5.21,5.21,0,1,0,.61,10.41Z" transform="translate(-60.32 -1)"/><path class="cls-2" d="M101,75.21c-1.37,2.54-1.53,12.11-.81,12.5s8.63-5,10-7.56A5.21,5.21,0,1,0,101,75.21Z" transform="translate(-60.32 -1)"/><path class="cls-2" d="M89.54,93.18c2.88-.17,11.12-5.05,11.07-5.87s-8.8-4.71-11.68-4.54a5.21,5.21,0,1,0,.61,10.41Z" transform="translate(-60.32 -1)"/><path class="cls-2" d="M111.09,88.34c-2.23,1.83-6,10.62-5.5,11.26s9.89-1.36,12.11-3.19a5.22,5.22,0,1,0-6.61-8.07Z" transform="translate(-60.32 -1)"/><path class="cls-2" d="M94.31,103.93c2.87.19,11.66-3.63,11.71-4.45s-8.14-5.77-11-6a5.22,5.22,0,1,0-.69,10.41Z" transform="translate(-60.32 -1)"/><path class="cls-2" d="M78.37,41.77c-.23,1.41,1.22,5.92,1.63,6s3.23-3.73,3.46-5.14a2.58,2.58,0,0,0-5.09-.84Z" transform="translate(-60.32 -1)"/><path class="cls-2" d="M74.7,50.54c1.42-.09,5.48-2.52,5.46-2.93s-4.37-2.31-5.79-2.22a2.58,2.58,0,0,0,.33,5.15Z" transform="translate(-60.32 -1)"/><path class="cls-2" d="M83.41,47.87c-.49,2,1,8.52,1.61,8.66s5-4.91,5.5-6.88a3.66,3.66,0,0,0-7.11-1.78Z" transform="translate(-60.32 -1)"/><path class="cls-2" d="M77.29,60.46c2-.13,7.79-3.59,7.76-4.17s-6.2-3.28-8.22-3.15a3.67,3.67,0,0,0,.46,7.32Z" transform="translate(-60.32 -1)"/><path class="cls-3" d="M180.11,111s-9.29-33.46,50.26-39.69C230.37,71.35,213.52,130.67,180.11,111Z" transform="translate(-60.32 -1)"/><path class="cls-4" d="M230.46,71.27l-50.77,35.41C179.47,97.45,184.13,76.12,230.46,71.27Z" transform="translate(-60.32 -1)"/><path class="cls-5" d="M181.83,105.35a.17.17,0,0,1-.14-.07.17.17,0,0,1,.05-.23l48.63-33.91a.16.16,0,0,1,.23,0,.17.17,0,0,1,0,.23l-48.63,33.92A.18.18,0,0,1,181.83,105.35Z" transform="translate(-60.32 -1)"/><path class="cls-5" d="M221.42,91.21h0l-16.35-2.07a.16.16,0,0,1-.14-.18.18.18,0,0,1,.19-.15l16.34,2.07a.18.18,0,0,1,.14.19A.16.16,0,0,1,221.42,91.21Z" transform="translate(-60.32 -1)"/><path class="cls-5" d="M194.66,96.41l-.08,0a.16.16,0,0,1-.07-.22l7.18-14.49a.16.16,0,1,1,.29.15l-7.17,14.49A.16.16,0,0,1,194.66,96.41Z" transform="translate(-60.32 -1)"/><path class="cls-6" d="M185.86,116s5.33-22.44,42-7C227.83,109,199,138.1,185.86,116Z" transform="translate(-60.32 -1)"/><path class="cls-3" d="M227.83,109l-42,7S195.13,139,227.83,109Z" transform="translate(-60.32 -1)"/><path class="cls-6" d="M216.54,115h0l-9.41-2.8a.17.17,0,0,1-.11-.2.18.18,0,0,1,.21-.12l9.41,2.8a.16.16,0,0,1,.11.21A.17.17,0,0,1,216.54,115Z" transform="translate(-60.32 -1)"/><path class="cls-6" d="M202.37,120.33l-.06,0-12-4.93a.16.16,0,0,1-.09-.22.17.17,0,0,1,.21-.09l12,4.94a.15.15,0,0,1,.09.21A.16.16,0,0,1,202.37,120.33Z" transform="translate(-60.32 -1)"/><path class="cls-3" d="M123.25,113.52S132.54,80.06,73,73.83C73,73.83,89.85,133.15,123.25,113.52Z" transform="translate(-60.32 -1)"/><path class="cls-4" d="M72.9,73.75l50.78,35.42C123.89,99.94,119.23,78.6,72.9,73.75Z" transform="translate(-60.32 -1)"/><path class="cls-5" d="M121.53,107.84a.16.16,0,0,1-.09,0L72.8,73.89a.17.17,0,0,1,0-.23.16.16,0,0,1,.23,0l48.64,33.91a.17.17,0,0,1,0,.23A.16.16,0,0,1,121.53,107.84Z" transform="translate(-60.32 -1)"/><path class="cls-5" d="M82,93.69a.17.17,0,0,1-.17-.14.18.18,0,0,1,.15-.19l16.34-2.07a.17.17,0,0,1,.18.15.16.16,0,0,1-.14.18L82,93.69Z" transform="translate(-60.32 -1)"/><path class="cls-5" d="M108.71,98.89a.16.16,0,0,1-.15-.09l-7.18-14.49a.16.16,0,0,1,.07-.22.17.17,0,0,1,.23.07l7.18,14.49a.17.17,0,0,1-.08.22Z" transform="translate(-60.32 -1)"/><path class="cls-7" d="M117.29,117.48s-4.67-17.85-33.67-4.82C83.62,112.66,107.18,135.4,117.29,117.48Z" transform="translate(-60.32 -1)"/><path class="cls-3" d="M83.62,112.66l33.67,4.82S110.29,136,83.62,112.66Z" transform="translate(-60.32 -1)"/><path class="cls-8" d="M120.55,87.33s.77.14.86.18.17.15-.43.22a6.27,6.27,0,0,1-2.5-.56L118.36,86s.86-.25,1.23-.41.82-.61,1-.44-.64.82-.64.82.49,0,.74,0,1.32-.1,1.35.16-1.28.31-1.28.31,1.6-.08,1.56.17-1.72.33-1.72.33a6.78,6.78,0,0,1,1.47.12c0,.16-.32.22-.68.26Z" transform="translate(-60.32 -1)"/><path class="cls-8" d="M108.36,86.16s2.53.54,2.85.54,7.15-.75,7.15-.75l.6,1.16s-5.27,2.17-8.66,2-3.12-1.61-3.12-1.61Z" transform="translate(-60.32 -1)"/><circle class="cls-9" cx="71.69" cy="40.51" r="7.23"/><path class="cls-10" d="M214.1,60.12a7.23,7.23,0,1,0-7.25,7.21A7.23,7.23,0,0,0,214.1,60.12Z" transform="translate(-60.32 -1)"/><path class="cls-10" d="M177.17,79.57a7.24,7.24,0,0,1,14.47,0,7.35,7.35,0,0,1-.42,2.41l12.3-.87-2.82-39.8-39.8,2.82.95,13.38a7.23,7.23,0,1,1,.92,13L163.72,84,178,83A7.29,7.29,0,0,1,177.17,79.57Z" transform="translate(-60.32 -1)"/><circle class="cls-9" cx="155.87" cy="66.05" r="7.25" transform="translate(-73.73 63.68) rotate(-22.5)"/><path class="cls-9" d="M111.91,46.68V60.09a7.11,7.11,0,0,1,3.09-.7,7.24,7.24,0,1,1,0,14.47,7.11,7.11,0,0,1-3.09-.7V86.57H151.8V46.68Z" transform="translate(-60.32 -1)"/><circle class="cls-11" cx="171.99" cy="81.4" r="7.23" transform="translate(-54.93 172.33) rotate(-54.22)"/><circle class="cls-11" cx="195.86" cy="105.94" r="7.25" transform="translate(-68.5 194.12) rotate(-52.02)"/><path class="cls-11" d="M151.89,86.56V100a7.15,7.15,0,0,1,3.1-.7,7.23,7.23,0,1,1-3.1,13.77v13.41h39.89V86.56Z" transform="translate(-60.32 -1)"/><circle class="cls-10" cx="155.16" cy="106.51" r="7.25" transform="translate(-80.64 37.5) rotate(-13.28)"/><circle class="cls-10" cx="132.02" cy="81.4" r="7.25" transform="translate(-80 48.12) rotate(-19.64)"/><path class="cls-10" d="M112.07,86.56V100a7.15,7.15,0,0,1,3.1-.7,7.23,7.23,0,1,1-3.1,13.77v13.41H152V86.56Z" transform="translate(-60.32 -1)"/><path class="cls-8" d="M98.05,122.51s-.61,3.3-.59,3.34-.19.37-.19.37l-.83.15-.77-.35a30.22,30.22,0,0,0,.54-3.51C96.13,122.12,98.05,122.51,98.05,122.51Z" transform="translate(-60.32 -1)"/><path class="cls-5" d="M95.67,126a2.17,2.17,0,0,0,1.79-.22s3.2,1.2,3.1,2.11c0,0,.14.27-1.25.21s-3.54-.12-3.6-.15S95.38,128.09,95.67,126Z" transform="translate(-60.32 -1)"/><path class="cls-8" d="M82.47,117.2s-3,1.61-3,1.65-.41.09-.41.09l-.64-.56-.21-.81a29.79,29.79,0,0,0,3.07-1.8C81.56,115.47,82.47,117.2,82.47,117.2Z" transform="translate(-60.32 -1)"/><path class="cls-5" d="M78.24,117.57a2.19,2.19,0,0,0,1.3,1.25s1.09,3.24.32,3.74c0,0-.13.27-1-.84s-2.14-2.83-2.15-2.89S76.45,118.65,78.24,117.57Z" transform="translate(-60.32 -1)"/><path class="cls-9" d="M101.5,100.73s1.81,8.93.52,13.86a45.66,45.66,0,0,1-4,9.69H95.16s3.15-8.79,2.67-12.18-.57-7.82-1.78-8-3.31,5.73-7.26,9.52a23.94,23.94,0,0,1-8.06,5.16l-1.13-2.66s6.76-5.92,7.89-8.15c3-5.86,5.17-9.76,5.17-9.76Z" transform="translate(-60.32 -1)"/><path class="cls-12" d="M100.44,84a5.73,5.73,0,0,0,2.43.2c.68-.29,3.1.4,4.8,1.09a12.82,12.82,0,0,0,2,.72,11.29,11.29,0,0,1-1.05,3.35s-2.46,0-2.58,0-3.34,6.37-3.51,7-.68,4.67-.68,4.67-3.51,1.9-5.12,1.46S94,99.72,91.29,100C91.29,100,94.07,85.77,100.44,84Z" transform="translate(-60.32 -1)"/><path class="cls-8" d="M105,89.07s3.39,1.5,4,1.34,5.54-1,5.54-1l.38,1s-4.3,3-7.21,2.84a13.91,13.91,0,0,1-5.59-1.78S104.12,89.25,105,89.07Z" transform="translate(-60.32 -1)"/><path class="cls-9" d="M101.54,92.32h0l-3-3a.06.06,0,0,1,0-.06s0,0,.06,0l2.91,2.93c2-2.56,3.52-3.24,3.85-3.36-.35-.39-2.75-3-3.86-3.47a0,0,0,0,1,0,0,.05.05,0,0,1,0,0c1.21.46,3.82,3.41,3.93,3.54s0,0,0,0l0,0s-1.71.52-3.89,3.4Z" transform="translate(-60.32 -1)"/><path class="cls-13" d="M104.63,80.25s.23-.32.39-.18c.41.36,0,.76-.33.85Z" transform="translate(-60.32 -1)"/><path class="cls-8" d="M104.78,79.07h0a.41.41,0,0,1,0-.11,2.62,2.62,0,0,0-5.22-.49,2.69,2.69,0,0,0,.16,1.33,15.17,15.17,0,0,0,.61,1.6,3.76,3.76,0,0,1,.25,2.36l-.14.63c1.57.93,2.34.17,2.34.17l.08-1.16a.3.3,0,0,1,.29-.27h0C105.16,83.1,104.74,80,104.78,79.07Z" transform="translate(-60.32 -1)"/><path class="cls-14" d="M102,80.31a.24.24,0,0,0-.23-.25.25.25,0,0,0-.26.23.25.25,0,1,0,.49,0Z" transform="translate(-60.32 -1)"/><path class="cls-14" d="M104.21,80a.25.25,0,0,0-.24-.25.23.23,0,0,0-.25.23.24.24,0,0,0,.23.25A.24.24,0,0,0,104.21,80Z" transform="translate(-60.32 -1)"/><path class="cls-14" d="M101.17,79.89l-.08,0a.15.15,0,0,1,0-.2.77.77,0,0,1,1.06-.19.13.13,0,0,1,0,.19.13.13,0,0,1-.19,0,.49.49,0,0,0-.68.11A.13.13,0,0,1,101.17,79.89Z" transform="translate(-60.32 -1)"/><path class="cls-14" d="M103.47,79.62l-.07,0a.14.14,0,0,1,0-.2.76.76,0,0,1,1-.2.15.15,0,0,1,0,.2.14.14,0,0,1-.19,0,.48.48,0,0,0-.68.11A.14.14,0,0,1,103.47,79.62Z" transform="translate(-60.32 -1)"/><polygon class="cls-14" points="38.99 77.89 39.62 79.69 40.1 79.62 40.49 77.35 38.99 77.89"/><path class="cls-8" d="M100.49,80.57a.41.41,0,0,0-.19-.2.66.66,0,0,0-.72,0c-.34.3.27,1.19.93.79C100.51,81.2,100.7,81,100.49,80.57Z" transform="translate(-60.32 -1)"/><path class="cls-13" d="M103.23,81.25a.47.47,0,0,1-.44,0,0,0,0,0,1,0-.06s0,0,.06,0a.38.38,0,0,0,.47,0,.24.24,0,0,0,.07-.09s0-.06-.08-.12a1.22,1.22,0,0,1-.32-.79,0,0,0,0,1,0,0,.05.05,0,0,1,0,0,1.17,1.17,0,0,0,.29.74c.06.06.11.12.1.18s0,.09-.09.14A.34.34,0,0,1,103.23,81.25Z" transform="translate(-60.32 -1)"/><path class="cls-12" d="M102.23,81.65a3.65,3.65,0,0,0,1.63-.09s-.19.75-.77.79S102.23,81.65,102.23,81.65Z" transform="translate(-60.32 -1)"/><path class="cls-14" d="M104.41,78s.36.28.38,1.87a6.67,6.67,0,0,0,0-2C104.62,77.73,104.41,78,104.41,78Z" transform="translate(-60.32 -1)"/><path class="cls-14" d="M100.62,75.9c.09-.07.23-.11.28,0a.2.2,0,0,1,0,.13,1.51,1.51,0,0,1-.14.35A2.38,2.38,0,0,1,102.7,76c.67.11,1.31.35,2,.41.27,0,.59,0,.71.28a.46.46,0,0,1-.09.52.85.85,0,0,1-.51.22.37.37,0,0,1,.4.15.38.38,0,0,1,0,.42.72.72,0,0,1-.65.18,20.27,20.27,0,0,1-2.2-.24l.28.3a.23.23,0,0,1,.08.12.19.19,0,0,1-.06.18.57.57,0,0,1-.45.16,3.89,3.89,0,0,1-.49-.12,2.88,2.88,0,0,0-.72-.15.26.26,0,0,0-.15,0,.45.45,0,0,0-.16.12,2.12,2.12,0,0,1-1.13.41c-.12,0-.28,0-.34-.09a.38.38,0,0,1,0-.15,3.28,3.28,0,0,1,.64-1.61.19.19,0,0,1-.34,0c-.07-.2.19-.33.34-.39s.26,0,.37-.16S100.42,76.06,100.62,75.9Z" transform="translate(-60.32 -1)"/><path class="cls-8" d="M116.55,90.05s.76-.16.86-.15.21.08-.32.36a6.41,6.41,0,0,1-2.53.39l-.55-1.1a12.44,12.44,0,0,0,1-.83c.28-.28.55-.86.76-.76s-.3,1-.3,1a7,7,0,0,0,.69-.28c.22-.11,1.19-.57,1.31-.34s-1.08.76-1.08.76,1.46-.65,1.51-.41-1.48.94-1.48.94a7,7,0,0,1,1.41-.43c.09.15-.22.32-.54.49Z" transform="translate(-60.32 -1)"/><path class="cls-8" d="M162.12,44.93s-.71-.14-.81-.13-.2.07.3.33a5.87,5.87,0,0,0,2.38.37l.52-1s-.67-.51-.94-.78-.51-.81-.71-.72.29.93.29.93a6.34,6.34,0,0,1-.65-.26c-.21-.1-1.12-.53-1.24-.31s1,.71,1,.71-1.37-.62-1.42-.39,1.39.88,1.39.88a6.32,6.32,0,0,0-1.32-.4c-.08.14.2.3.5.46Z" transform="translate(-60.32 -1)"/><path class="cls-8" d="M201,44.52s.72-.14.81-.14.2.08-.3.34a5.85,5.85,0,0,1-2.37.36l-.52-1s.66-.51.93-.78.51-.81.71-.72-.29.93-.29.93a6.34,6.34,0,0,0,.65-.26c.21-.11,1.12-.53,1.24-.32s-1,.72-1,.72,1.36-.62,1.41-.39-1.39.88-1.39.88a6.32,6.32,0,0,1,1.32-.4c.09.14-.2.3-.5.46Z" transform="translate(-60.32 -1)"/><path class="cls-8" d="M182.12,81.19s.6,3.23.58,3.26.19.37.19.37l.81.14.75-.34a29.47,29.47,0,0,1-.53-3.43C184,80.81,182.12,81.19,182.12,81.19Z" transform="translate(-60.32 -1)"/><path class="cls-5" d="M184.45,84.62a2.12,2.12,0,0,1-1.75-.22s-3.13,1.18-3,2.07c0,0-.14.27,1.22.21s3.47-.12,3.52-.15S184.73,86.64,184.45,84.62Z" transform="translate(-60.32 -1)"/><path class="cls-8" d="M190.79,81.19s.6,3.23.58,3.26.19.37.19.37l.81.14.75-.34a29.47,29.47,0,0,1-.53-3.43C192.67,80.81,190.79,81.19,190.79,81.19Z" transform="translate(-60.32 -1)"/><path class="cls-5" d="M193.12,84.62a2.12,2.12,0,0,1-1.75-.22s-3.13,1.18-3,2.07c0,0-.14.27,1.22.21s3.47-.12,3.52-.15S193.4,86.64,193.12,84.62Z" transform="translate(-60.32 -1)"/><path class="cls-5" d="M179,58a51.67,51.67,0,0,0,0,13.81c1,8.06,2.54,11.71,2.54,11.71h3.64a38.72,38.72,0,0,1,0-18.89s1,11.38,5.3,18.89h3.32s-3.44-14.54-3.76-19.33c-.23-3.4-.07-7.82-.07-7.82Z" transform="translate(-60.32 -1)"/><path class="cls-5" d="M177.23,36.31a.13.13,0,0,0,.07,0,.14.14,0,0,0,0-.2.9.9,0,0,0-1.16.11.13.13,0,0,0,0,.2.18.18,0,0,0,.22,0,.56.56,0,0,1,.74-.09A.16.16,0,0,0,177.23,36.31Z" transform="translate(-60.32 -1)"/><path class="cls-8" d="M176.13,35.79h0s0-.06,0-.1a2.69,2.69,0,0,1,2.75-2.84,2.81,2.81,0,0,1,2.87,2.09,2.35,2.35,0,0,1-.09,1.32c-.2.62-.38,1.16-.57,1.61a3.37,3.37,0,0,0-.14,2.34l.18.61c-1.65,1-2.53.28-2.53.28L178.44,40a.31.31,0,0,0-.32-.25h0C175.63,39.79,176.63,37.63,176.13,35.79Z" transform="translate(-60.32 -1)"/><path class="cls-5" d="M180.13,34.06l1.66,1.21a2.51,2.51,0,0,1-.14,1c-.2.62-.38,1.16-.57,1.61a3.26,3.26,0,0,0-.26,1h0c-.38.17-2.58-.1-2.73-.46s.12-1.73-.6-1.62-1.14-2-1.14-2l1.7-.7Z" transform="translate(-60.32 -1)"/><path class="cls-15" d="M177.81,37a.39.39,0,0,0-.2-.2.77.77,0,0,0-.79,0c-.38.28.23,1.18,1,.83C177.78,37.6,178,37.43,177.81,37Z" transform="translate(-60.32 -1)"/><path class="cls-5" d="M181.87,33.78c-.14-.27-.31-.53-.47-.79s-.17-.25-.25-.38-.12-.3-.24-.33-.19.3-.18.38a3.85,3.85,0,0,0,.22.52c-.15-.48-.83-.72-1.3-.84a9.61,9.61,0,0,0-1.61-.23,1.15,1.15,0,0,0-.37,0c-.42.12-.16.39,0,.56a3.22,3.22,0,0,1-.38.05,2.29,2.29,0,0,0-1.32.54c-.13.11-.22.29,0,.4a.53.53,0,0,0,.39,0,2.13,2.13,0,0,0-.8.39c-.14.12-.33.33-.3.52s.28.27.46.29a11.48,11.48,0,0,0,1.44-.1,6,6,0,0,1,1.58.16c.42.1.83.25,1.26.35a7.85,7.85,0,0,0,1.08.18c.25,0,.69.17.82-.06A1.91,1.91,0,0,0,181.87,33.78Z" transform="translate(-60.32 -1)"/><path class="cls-12" d="M180.9,40.09s-2,.77-2.81,1.12c-1.31.53-5.51,3.78-7,3.94s-6.87-1-6.87-1l-.41,1.74s3.47,3.56,6.7,3.15a33.92,33.92,0,0,0,5.72-1.25,35,35,0,0,1,1.82,5.39c.25,1.66.33,5.3.33,5.3s5,1.66,12-.75c0,0,0-2.49-2.47-12.24C187.92,45.5,185.54,39.51,180.9,40.09Z" transform="translate(-60.32 -1)"/><path class="cls-12" d="M180.9,40.09s2-.49,6.06,1.46c3.47,1.69,8,2.68,9.86,2.27l1.82-.41.64,2.32s-2.23,1.54-6.76,1.5a44.82,44.82,0,0,1-6.32-.32Z" transform="translate(-60.32 -1)"/><path class="cls-8" d="M147,103.54s.31,2.21-.48,3.32-2.43,2.69-2,3.11,5.11-2,5-2.48a13.48,13.48,0,0,1-.69-3.95Z" transform="translate(-60.32 -1)"/><path class="cls-12" d="M149.23,106.42c.13.49.25.88.29,1.07.1.53-4.59,2.9-5,2.48s.5-1.26,1.27-2.18C146.21,108.06,147.3,108.34,149.23,106.42Z" transform="translate(-60.32 -1)"/><path class="cls-8" d="M143.19,99.82s.32,2.22-.47,3.32-2.43,2.69-2,3.12,5.11-2,5-2.48a13.56,13.56,0,0,1-.69-4Z" transform="translate(-60.32 -1)"/><path class="cls-12" d="M145.44,102.71c.13.48.25.88.29,1.07.1.52-4.59,2.9-5,2.48s.5-1.27,1.27-2.19C142.42,104.34,143.51,104.63,145.44,102.71Z" transform="translate(-60.32 -1)"/><path class="cls-16" d="M158.19,61.69s2.76,1,2.72,3.06.41,3.26,1.06,3.92,3.56,2.49,3,4.62-3.15,3.86-3.15,3.86-7.81,0-9.44-4.07S153.17,60.39,158.19,61.69Z" transform="translate(-60.32 -1)"/><path class="cls-9" d="M158.19,83.48a11.05,11.05,0,0,1-1.64,4.46c-1.31,1.8-6.21,5.13-6.43,5.62s-1,10.78-1,10.78h-2.84s-.65-10.78,0-12.75,3.27-4.16,3.27-4.16-4.14,2.2-4.3,2.75.32,10.51.32,10.51l-2.83.44s-2-10.52-1.85-13.19,9.66-6,9.66-6Z" transform="translate(-60.32 -1)"/><path class="cls-12" d="M155.52,69.81s4.12.37,5.35,2,3.19,3.56,2.9,14.35H162s-1.8-6.88-2.94-9a47.61,47.61,0,0,1-1,6.76s-3.33,2-8.34-1.75l-5.07,2-1-1.24s4.17-2.55,4.7-5.33S149.67,70.34,155.52,69.81Z" transform="translate(-60.32 -1)"/><path class="cls-14" d="M149.74,82.28h0a.07.07,0,0,1,0-.07,19.9,19.9,0,0,0,.63-4.22,7.5,7.5,0,0,1-.25-1.8A2.57,2.57,0,0,1,151.28,74a0,0,0,0,1,.07,0,0,0,0,0,1,0,.07,2.47,2.47,0,0,0-1.16,2.06,8.11,8.11,0,0,0,.24,1.79v0a19.79,19.79,0,0,1-.63,4.25S149.76,82.28,149.74,82.28Z" transform="translate(-60.32 -1)"/><path class="cls-14" d="M155.82,77.39a3.64,3.64,0,0,1-1.67-.38.06.06,0,0,1,0-.07.06.06,0,0,1,.08,0,4.15,4.15,0,0,0,3.38,0,.05.05,0,0,1,.07,0,.05.05,0,0,1,0,.08A4.85,4.85,0,0,1,155.82,77.39Z" transform="translate(-60.32 -1)"/><path class="cls-8" d="M157.55,61.9A2.68,2.68,0,0,1,159.19,66a11.13,11.13,0,0,1-1.4,2,2.67,2.67,0,0,0-.76,1.8v.27a.55.55,0,0,1-.44.53,1.94,1.94,0,0,1-1.52-.22.53.53,0,0,1-.22-.52l.2-1.28h0c-1.63-.46-.91-3.51-.77-4.42h0s0-.07,0-.1A2.69,2.69,0,0,1,157.55,61.9Z" transform="translate(-60.32 -1)"/><path class="cls-16" d="M157.3,64.63a9.89,9.89,0,0,1,.72,1.21,2.89,2.89,0,0,1,.47,1.4,3.54,3.54,0,0,0,1.15-1.16,2.64,2.64,0,0,0,.36-.66,3,3,0,0,0,0-1.07,2.89,2.89,0,0,0-.33-1.34,2.24,2.24,0,0,0-.66-.64,3.81,3.81,0,0,0-2-.68,2.71,2.71,0,0,0-2,.74A4.77,4.77,0,0,0,154,64.94a2.67,2.67,0,0,1,.74-.9,2.34,2.34,0,0,1,.63-.45,11.28,11.28,0,0,0,1.2-.43A3.2,3.2,0,0,0,157.3,64.63Z" transform="translate(-60.32 -1)"/><path class="cls-8" d="M158.26,66.6a.41.41,0,0,1,.24-.15.66.66,0,0,1,.72.18c.27.38-.52,1.14-1.1.6C158.12,67.23,158,67,158.26,66.6Z" transform="translate(-60.32 -1)"/><path class="cls-14" d="M154.61,65.5a.24.24,0,1,1,.22.25A.24.24,0,0,1,154.61,65.5Z" transform="translate(-60.32 -1)"/><path class="cls-14" d="M156.76,66.1a.24.24,0,1,1,.22.25A.24.24,0,0,1,156.76,66.1Z" transform="translate(-60.32 -1)"/><path class="cls-17" d="M154.85,67.26s.22-.1.33-.05a.39.39,0,0,1,.15.22.26.26,0,0,1,.24-.1,3.57,3.57,0,0,1,.52.23s-.5.52-.91.32a.58.58,0,0,1-.33-.6Z" transform="translate(-60.32 -1)"/><path class="cls-14" d="M155.19,67.59a1.36,1.36,0,0,0,1,0s0,0,0,0,0,0,0,0-.9.42-1.33-.27a0,0,0,1,0-.05,0A.79.79,0,0,0,155.19,67.59Z" transform="translate(-60.32 -1)"/><path class="cls-16" d="M157.57,65.89a.11.11,0,0,0,.08,0,.09.09,0,0,0,0-.13,1.11,1.11,0,0,0-.71-.32.11.11,0,0,0-.11.1.1.1,0,0,0,.09.1.94.94,0,0,1,.59.25Z" transform="translate(-60.32 -1)"/><path class="cls-16" d="M155.28,65.11a.08.08,0,0,0,.07,0,.09.09,0,0,0,0-.14,1.14,1.14,0,0,0-.76-.18.12.12,0,0,0-.09.11.1.1,0,0,0,.11.09,1,1,0,0,1,.63.14A.07.07,0,0,0,155.28,65.11Z" transform="translate(-60.32 -1)"/><path class="cls-13" d="M155.5,66.73a.81.81,0,0,0,.22.07,0,0,0,0,0,0,0s0,0,0,0c-.33,0-.35-.26-.35-.32a1.26,1.26,0,0,0,.36-.77s0,0,0,0,0,0,0,0a1.21,1.21,0,0,1-.35.74s0,0,0,0A.37.37,0,0,0,155.5,66.73Z" transform="translate(-60.32 -1)"/><path class="cls-8" d="M144.58,84.16a1.65,1.65,0,0,1-.45.6c-.32.25-1.35.87-1.49,1a8.55,8.55,0,0,1-.87,1.08c-.18.07.32-1.12.32-1.12s-.57,1-.77.91.32-1.13.32-1.13-.54,1-.7.89.35-1.07.35-1.07-.43.76-.55.68a2.86,2.86,0,0,1,.91-1.71c.49-.31,2.1-1.16,2.1-1.16Z" transform="translate(-60.32 -1)"/><path class="cls-8" d="M144.58,84.16a7.23,7.23,0,0,1-.5,1.19c-.2.32-.54,1-.67.92s.27-1.09.2-1.19.2-.5.2-.5Z" transform="translate(-60.32 -1)"/><path class="cls-8" d="M162.11,86.16s.81,1.88,1.2,2,1.59.22,1.77.29a9.56,9.56,0,0,0,1.24.62c.19,0-.76-.88-.76-.88s.92.63,1.08.5-.76-.89-.76-.89.9.67,1,.51-.77-.82-.77-.82.71.51.79.38a2.56,2.56,0,0,0-1.55-1.16,2.52,2.52,0,0,1-1.81-.53Z" transform="translate(-60.32 -1)"/><path class="cls-8" d="M162.74,87.43a5.14,5.14,0,0,0,.85,1.22c.32.21.92.7,1,.56s-.71-.88-.68-1-.39-.38-.39-.38Z" transform="translate(-60.32 -1)"/><path class="cls-3" d="M108.71,40V37.28h-2.33a5.19,5.19,0,0,0-.5-1l1.55-1.87-2.11-1.75-1.47,1.77a6,6,0,0,0-.95-.37V31.85h-2.74v2.21a6,6,0,0,0-1,.37l-1.47-1.77-2.11,1.75,1.54,1.87a5.15,5.15,0,0,0-.49,1H94.34V40h2.13a5.23,5.23,0,0,0,.6,1.6l-1.44,1.74,2.11,1.75L99,43.55a5.46,5.46,0,0,0,1.12.45v1.94h2.74V44a5.38,5.38,0,0,0,1.11-.45l1.31,1.57,2.11-1.75L106,41.63a5.25,5.25,0,0,0,.61-1.6Zm-7.18,1.7a2.7,2.7,0,1,1,2.69-2.7A2.7,2.7,0,0,1,101.53,41.73Z" transform="translate(-60.32 -1)"/><path class="cls-12" d="M184.61,18.17V16.29H183a2.77,2.77,0,0,0-.34-.69l1.07-1.28-1.45-1.2-1,1.21a3.64,3.64,0,0,0-.65-.25V12.56h-1.88v1.52a3.37,3.37,0,0,0-.65.25l-1-1.21-1.45,1.2,1.06,1.28a3.14,3.14,0,0,0-.33.69h-1.61v1.88h1.46a3.58,3.58,0,0,0,.42,1.1l-1,1.19,1.45,1.2.9-1.08a2.82,2.82,0,0,0,.76.31v1.33h1.88V20.89a3,3,0,0,0,.76-.31l.9,1.08,1.45-1.2-1-1.19a3.58,3.58,0,0,0,.42-1.1Zm-4.93,1.17a1.85,1.85,0,1,1,1.85-1.85A1.85,1.85,0,0,1,179.68,19.34Z" transform="translate(-60.32 -1)"/><path class="cls-3" d="M228.42,59.75v-1.9H226.8a3.52,3.52,0,0,0-.35-.7l1.08-1.3-1.47-1.21-1,1.23a3.77,3.77,0,0,0-.66-.26V54.07h-1.9v1.54a3.77,3.77,0,0,0-.66.26l-1-1.23-1.47,1.21,1.08,1.3a3.52,3.52,0,0,0-.35.7h-1.62v1.9h1.48a3.54,3.54,0,0,0,.42,1.11l-1,1.22,1.47,1.21.91-1.09a3.45,3.45,0,0,0,.77.31v1.34h1.9V62.51a3.73,3.73,0,0,0,.78-.31l.9,1.09,1.47-1.21-1-1.22a3.54,3.54,0,0,0,.42-1.11Zm-5,1.18a1.87,1.87,0,1,1,1.87-1.87A1.87,1.87,0,0,1,223.43,60.93Z" transform="translate(-60.32 -1)"/><path class="cls-18" d="M108.72,19.6A3.42,3.42,0,1,0,112.13,23,3.42,3.42,0,0,0,108.72,19.6Zm.08,5.94A2.53,2.53,0,1,1,111.32,23,2.53,2.53,0,0,1,108.8,25.54Z" transform="translate(-60.32 -1)"/><rect class="cls-18" x="47.93" y="17.58" width="0.93" height="1.33"/><rect class="cls-18" x="109.77" y="18.8" width="0.93" height="1.33" transform="translate(-41.74 -45.8) rotate(25.03)"/><rect class="cls-18" x="111.01" y="19.64" width="0.93" height="1.33" transform="translate(-7.75 -77.49) rotate(48.35)"/><rect class="cls-18" x="111.77" y="20.84" width="0.93" height="1.33" transform="translate(26.68 -90.95) rotate(66.4)"/><rect class="cls-18" x="104.52" y="22.37" width="0.93" height="1.33" transform="translate(67.7 -82.95) rotate(90)"/><rect class="cls-18" x="111.97" y="22.37" width="0.93" height="1.33" transform="translate(75.15 -90.39) rotate(90)"/><rect class="cls-18" x="106.71" y="18.8" width="0.93" height="1.33" transform="translate(152.21 -9.23) rotate(154.97)"/><rect class="cls-18" x="105.47" y="19.64" width="0.93" height="1.33" transform="translate(131.19 -46.36) rotate(131.65)"/><rect class="cls-18" x="104.72" y="20.84" width="0.93" height="1.33" transform="translate(106.69 -67.26) rotate(113.6)"/><rect class="cls-18" x="47.94" y="25.16" width="0.93" height="1.33"/><rect class="cls-18" x="109.78" y="25.94" width="0.93" height="1.33" transform="translate(-61.22 48.13) rotate(-25.02)"/><rect class="cls-18" x="111.02" y="25.1" width="0.93" height="1.33" transform="translate(-42.17 90.95) rotate(-48.35)"/><rect class="cls-18" x="111.78" y="23.9" width="0.93" height="1.33" transform="translate(-15.53 116.58) rotate(-66.4)"/><rect class="cls-18" x="106.72" y="25.94" width="0.93" height="1.33" transform="translate(132.74 95.05) rotate(-154.98)"/><rect class="cls-18" x="105.48" y="25.1" width="0.93" height="1.33" transform="translate(96.78 121.05) rotate(-131.65)"/><rect class="cls-18" x="104.73" y="23.9" width="0.93" height="1.33" transform="translate(64.49 129.79) rotate(-113.61)"/><path class="cls-2" d="M155.21,9a12.41,12.41,0,1,0,12.4,12.41A12.41,12.41,0,0,0,155.21,9Zm.28,21.59a9.18,9.18,0,1,1,9.18-9.18A9.18,9.18,0,0,1,155.49,30.61Z" transform="translate(-60.32 -1)"/><rect class="cls-2" x="93.19" y="4.32" width="3.38" height="4.83"/><rect class="cls-2" x="159.03" y="6.12" width="3.38" height="4.83" transform="translate(-41.62 -68.18) rotate(25.02)"/><rect class="cls-2" x="163.54" y="9.18" width="3.38" height="4.83" transform="translate(3.78 -120.58) rotate(48.35)"/><rect class="cls-2" x="166.28" y="13.53" width="3.38" height="4.83" transform="translate(55 -145.35) rotate(66.39)"/><rect class="cls-2" x="139.94" y="19.09" width="3.38" height="4.83" transform="translate(102.82 -121.13) rotate(90)"/><rect class="cls-2" x="167" y="19.09" width="3.38" height="4.83" transform="translate(129.88 -148.19) rotate(90)"/><rect class="cls-2" x="147.92" y="6.12" width="3.38" height="4.83" transform="translate(228.47 -48) rotate(154.98)"/><rect class="cls-2" x="143.41" y="9.18" width="3.38" height="4.83" transform="translate(189.87 -90.11) rotate(131.65)"/><rect class="cls-2" x="140.67" y="13.53" width="3.38" height="4.83" transform="translate(153.66 -109.11) rotate(113.61)"/><rect class="cls-2" x="93.24" y="31.86" width="3.38" height="4.83"/><rect class="cls-2" x="159.07" y="32.06" width="3.38" height="4.83" transform="translate(-59.81 70.24) rotate(-25.02)"/><rect class="cls-2" x="163.58" y="29" width="3.38" height="4.83" transform="translate(-28.35 133.04) rotate(-48.35)"/><rect class="cls-2" x="166.32" y="24.65" width="3.38" height="4.83" transform="translate(15.61 169.18) rotate(-66.39)"/><rect class="cls-2" x="147.96" y="32.06" width="3.38" height="4.83" transform="translate(210.35 128.01) rotate(-154.98)"/><rect class="cls-2" x="143.45" y="29" width="3.38" height="4.83" transform="translate(157.8 159.74) rotate(-131.65)"/><rect class="cls-2" x="140.71" y="24.65" width="3.38" height="4.83" transform="translate(114.3 167.39) rotate(-113.61)"/><path class="cls-5" d="M201.43,125.4h0a.1.1,0,0,1-.09-.12c1.89-15.56,4.13-26.7,6.32-31.38,0-.1.08-.17.09-.21a.11.11,0,0,1,.14-.07.12.12,0,0,1,.07.14s-.05.12-.11.24c-2.17,4.65-4.41,15.77-6.3,31.31A.1.1,0,0,1,201.43,125.4Z" transform="translate(-60.32 -1)"/><path class="cls-5" d="M209.53,92.79a5.47,5.47,0,0,1-2,1.61,5.39,5.39,0,0,1,.09-2.56,1.07,1.07,0,1,1,1.91,1Z" transform="translate(-60.32 -1)"/><path class="cls-5" d="M206.43,94.79a5.65,5.65,0,0,1,.09,2.62,5.57,5.57,0,0,1-2-1.64,1.09,1.09,0,1,1,2-1Z" transform="translate(-60.32 -1)"/><path class="cls-5" d="M209.08,97.83a5.56,5.56,0,0,1-2.57-.5,5.6,5.6,0,0,1,2.06-1.62,1.09,1.09,0,1,1,.51,2.12Z" transform="translate(-60.32 -1)"/><path class="cls-5" d="M203.05,105.48a9.51,9.51,0,0,1,.62,4.35c-.25.16-3.16-1.52-3.71-2.37a1.83,1.83,0,1,1,3.09-2Z" transform="translate(-60.32 -1)"/><path class="cls-5" d="M208,110.07a9.42,9.42,0,0,1-4.38-.38c-.1-.27,2.2-2.73,3.15-3.07a1.83,1.83,0,0,1,1.23,3.45Z" transform="translate(-60.32 -1)"/><path class="cls-5" d="M201.09,109.62c.88.87,2.16,4.79,1.92,5s-4.18-1-5.07-1.84a2.25,2.25,0,0,1,3.15-3.2Z" transform="translate(-60.32 -1)"/><path class="cls-5" d="M208.09,115.55c-1.21.3-5.21-.67-5.29-1s3-3.05,4.22-3.34a2.24,2.24,0,1,1,1.07,4.35Z" transform="translate(-60.32 -1)"/><path class="cls-5" d="M200.32,114.72c.88.87,2.16,4.79,1.91,5s-4.18-1-5.06-1.84a2.25,2.25,0,0,1,3.15-3.2Z" transform="translate(-60.32 -1)"/><path class="cls-5" d="M207.31,120.65c-1.2.3-5.2-.67-5.29-1s3-3,4.23-3.34a2.24,2.24,0,1,1,1.06,4.35Z" transform="translate(-60.32 -1)"/><path class="cls-5" d="M197.85,121.39c1.15.47,3.82,3.6,3.69,3.93s-4.24.69-5.38.22a2.24,2.24,0,1,1,1.69-4.15Z" transform="translate(-60.32 -1)"/><path class="cls-5" d="M206.72,125.67c-1.16.44-5.25,0-5.38-.34s2.62-3.41,3.78-3.85a2.24,2.24,0,0,1,1.6,4.19Z" transform="translate(-60.32 -1)"/><path class="cls-5" d="M205.39,98.12a5.55,5.55,0,0,1,.09,2.66,5.65,5.65,0,0,1-2.07-1.67,1.11,1.11,0,1,1,2-1Z" transform="translate(-60.32 -1)"/><path class="cls-5" d="M208,101.26a5.71,5.71,0,0,1-2.61-.52,5.68,5.68,0,0,1,2.09-1.64,1.11,1.11,0,0,1,.52,2.16Z" transform="translate(-60.32 -1)"/><path class="cls-5" d="M204.09,101.26a8,8,0,0,1,.44,3.76,8,8,0,0,1-3.13-2.13,1.57,1.57,0,1,1,2.69-1.63Z" transform="translate(-60.32 -1)"/><path class="cls-5" d="M208.2,105.66a8.15,8.15,0,0,1-3.71-.73,8.13,8.13,0,0,1,3-2.34,1.58,1.58,0,0,1,.73,3.07Z" transform="translate(-60.32 -1)"/></svg>