<svg width="120" height="120" viewBox="0 0 120 120" fill="none" xmlns="http://www.w3.org/2000/svg">
<path d="M98.875 113.125L85.75 100H20V86C20 83.1667 20.7292 80.5625 22.1875 78.1875C23.6458 75.8125 25.5833 74 28 72.75C31.75 70.8333 35.5625 69.2917 39.4375 68.125C43.3125 66.9583 47.25 66.0833 51.25 65.5L6.875 21.125L14 14L106 106L98.875 113.125ZM30 90H75.75L60.75 75H60C55.3333 75 50.7083 75.5625 46.125 76.6875C41.5417 77.8125 37 79.5 32.5 81.75C31.75 82.1667 31.1458 82.75 30.6875 83.5C30.2292 84.25 30 85.0833 30 86V90ZM92 72.75C94.4167 73.9167 96.3333 75.6875 97.75 78.0625C99.1667 80.4375 99.9167 83 100 85.75L83.25 69C84.75 69.5833 86.2292 70.1667 87.6875 70.75C89.1458 71.3333 90.5833 72 92 72.75ZM71 56.75L63.625 49.375C65.5417 48.625 67.0833 47.3958 68.25 45.6875C69.4167 43.9792 70 42.0833 70 40C70 37.25 69.0208 34.8958 67.0625 32.9375C65.1042 30.9792 62.75 30 60 30C57.9167 30 56.0208 30.5833 54.3125 31.75C52.6042 32.9167 51.375 34.4583 50.625 36.375L43.25 29C45.1667 26.1667 47.5833 23.9583 50.5 22.375C53.4167 20.7917 56.5833 20 60 20C65.5 20 70.2083 21.9583 74.125 25.875C78.0417 29.7917 80 34.5 80 40C80 43.4167 79.2083 46.5833 77.625 49.5C76.0417 52.4167 73.8333 54.8333 71 56.75Z" fill="#263238"/>
</svg>
