<svg width="120" height="120" viewBox="0 0 120 120" fill="none" xmlns="http://www.w3.org/2000/svg">
<path d="M30 110V88.5C25.25 84.1667 21.5625 79.1042 18.9375 73.3125C16.3125 67.5208 15 61.4167 15 55C15 42.5 19.375 31.875 28.125 23.125C36.875 14.375 47.5 10 60 10C70.4167 10 79.6458 13.0625 87.6875 19.1875C95.7292 25.3125 100.958 33.2917 103.375 43.125L109.875 68.75C110.292 70.3333 110 71.7708 109 73.0625C108 74.3542 106.667 75 105 75H95V90C95 92.75 94.0208 95.1042 92.0625 97.0625C90.1042 99.0208 87.75 100 85 100H75V110H65V90H85V65H98.5L93.75 45.625C91.8333 38.0417 87.75 31.875 81.5 27.125C75.25 22.375 68.0833 20 60 20C50.3333 20 42.0833 23.375 35.25 30.125C28.4167 36.875 25 45.0833 25 54.75C25 59.75 26.0208 64.5 28.0625 69C30.1042 73.5 33 77.5 36.75 81L40 84V110H30ZM60 80C61.4167 80 62.6042 79.5208 63.5625 78.5625C64.5208 77.6042 65 76.4167 65 75C65 73.5833 64.5208 72.3958 63.5625 71.4375C62.6042 70.4792 61.4167 70 60 70C58.5833 70 57.3958 70.4792 56.4375 71.4375C55.4792 72.3958 55 73.5833 55 75C55 76.4167 55.4792 77.6042 56.4375 78.5625C57.3958 79.5208 58.5833 80 60 80ZM56.25 64H63.875C63.875 61.9167 64.1458 60.2292 64.6875 58.9375C65.2292 57.6458 66.3333 56.0833 68 54.25C69.5 52.5833 70.9583 50.8958 72.375 49.1875C73.7917 47.4792 74.5 45.25 74.5 42.5C74.5 39 73.1458 36.0417 70.4375 33.625C67.7292 31.2083 64.375 30 60.375 30C57.0417 30 54.0208 30.9583 51.3125 32.875C48.6042 34.7917 46.7083 37.2917 45.625 40.375L52.5 43.25C53.0833 41.4167 54.1042 39.9375 55.5625 38.8125C57.0208 37.6875 58.625 37.125 60.375 37.125C62.2083 37.125 63.7292 37.625 64.9375 38.625C66.1458 39.625 66.75 40.9167 66.75 42.5C66.75 44.25 66.2292 45.8125 65.1875 47.1875C64.1458 48.5625 62.9167 49.9583 61.5 51.375C59.8333 53.125 58.5417 54.875 57.625 56.625C56.7083 58.375 56.25 60.8333 56.25 64Z" fill="#263238"/>
</svg>
