<svg id="レイヤー_1" data-name="レイヤー 1" xmlns="http://www.w3.org/2000/svg" viewBox="0 0 195.32 130"><defs><style>.cls-1{fill:#dae6ff;}.cls-2{fill:#b8d0fc;}.cls-3{opacity:0.8;}.cls-4{fill:#5e86e6;}.cls-5{fill:#89b4fd;}.cls-6{fill:#fff;}.cls-7{fill:#100259;}.cls-8{fill:#518cdd;}.cls-9{fill:#ff6760;}.cls-10{fill:#fb4f4c;}.cls-11{fill:#ff8280;}.cls-12{fill:#f78375;}.cls-13{fill:#ffa089;}.cls-14{fill:#ff7e7b;}</style></defs><path class="cls-1" d="M251.27,116.84A19,19,0,0,1,233.2,130H79a21.36,21.36,0,0,1-21.26-19.17c-.7-6.94.57-14.07,3.49-19.4a21.9,21.9,0,0,1,1.6-2.51l.22-.28c16.37-21.22-5.6-36.33,3.49-51.74C78.66,16.29,96,37.74,123,16.33c22.52-17.85,40.7-19.41,51.16-12.59l.91.61c6.33,4.3,12.19,10,19.83,13.82l.93.45C201,21,207,21.68,214.53,22.09c25.39,1.38,32.13,10.7,32.87,22.14S243,68.94,244.25,78.79a15.17,15.17,0,0,0,2.23,6.48,41.17,41.17,0,0,1,2.13,3.65c.42.83.81,1.67,1.17,2.51A37,37,0,0,1,251.27,116.84Z" transform="translate(-57.53 0)"/><path class="cls-2" d="M222.07,117.82l.05,0a.25.25,0,0,0,.13-.32c-13.92-33.3-25.85-56.59-33.6-65.58-.17-.19-.29-.34-.34-.41a.25.25,0,0,0-.35-.07.24.24,0,0,0-.07.34c.07.1.19.24.38.47,7.72,9,19.62,32.19,33.52,65.44A.25.25,0,0,0,222.07,117.82Z" transform="translate(-57.53 0)"/><path class="cls-2" d="M183.77,50.63c.91,1,5.14,2.58,5.42,2.32s-.87-4.62-1.78-5.62a2.46,2.46,0,0,0-3.64,3.3Z" transform="translate(-57.53 0)"/><path class="cls-2" d="M191.87,53.12c-.26,1.37,1.06,5.79,1.44,5.87s3.24-3.56,3.5-4.93a2.51,2.51,0,0,0-4.94-.94Z" transform="translate(-57.53 0)"/><path class="cls-2" d="M187.9,61.51c1.39,0,5.4-2.33,5.39-2.72s-4.2-2.35-5.58-2.3a2.51,2.51,0,1,0,.19,5Z" transform="translate(-57.53 0)"/><path class="cls-2" d="M206.05,74.68c-.68,2.23.71,9.84,1.35,10s6-5.35,6.72-7.58a4.22,4.22,0,1,0-8.07-2.46Z" transform="translate(-57.53 0)"/><path class="cls-2" d="M197.91,88c2.32.16,9.43-2.91,9.48-3.58s-6.58-4.68-8.9-4.84a4.22,4.22,0,0,0-.58,8.42Z" transform="translate(-57.53 0)"/><path class="cls-2" d="M213,82.64c-1.41,2.48-1.81,12-1.1,12.35s8.65-4.76,10.07-7.24a5.16,5.16,0,0,0-9-5.11Z" transform="translate(-57.53 0)"/><path class="cls-2" d="M201.17,100.15c2.85-.1,11.12-4.73,11.09-5.55s-8.59-4.87-11.44-4.77a5.16,5.16,0,0,0,.35,10.32Z" transform="translate(-57.53 0)"/><path class="cls-2" d="M217.86,93.47c-1.41,2.47-1.8,11.94-1.09,12.35s8.65-4.77,10.06-7.24a5.16,5.16,0,0,0-9-5.11Z" transform="translate(-57.53 0)"/><path class="cls-2" d="M206.07,111c2.85-.1,11.12-4.73,11.09-5.55s-8.6-4.87-11.45-4.77a5.16,5.16,0,0,0,.36,10.32Z" transform="translate(-57.53 0)"/><path class="cls-2" d="M227.5,106.7c-2.25,1.75-6.22,10.36-5.72,11s9.82-1.11,12.07-2.86a5.16,5.16,0,1,0-6.35-8.14Z" transform="translate(-57.53 0)"/><path class="cls-2" d="M210.52,121.71c2.84.26,11.62-3.3,11.7-4.11s-7.92-5.91-10.76-6.17a5.16,5.16,0,0,0-.94,10.28Z" transform="translate(-57.53 0)"/><path class="cls-2" d="M196.25,59.84c-.26,1.38,1.07,5.88,1.47,6s3.28-3.61,3.55-5a2.55,2.55,0,0,0-5-.95Z" transform="translate(-57.53 0)"/><path class="cls-2" d="M192.41,68.43c1.41-.06,5.49-2.37,5.47-2.77s-4.26-2.39-5.67-2.33a2.55,2.55,0,0,0,.2,5.1Z" transform="translate(-57.53 0)"/><path class="cls-2" d="M201.09,66c-.53,1.93.83,8.45,1.38,8.61s5.08-4.74,5.61-6.67a3.63,3.63,0,0,0-7-1.94Z" transform="translate(-57.53 0)"/><path class="cls-2" d="M194.74,78.3c2-.08,7.79-3.36,7.77-3.93s-6.06-3.4-8.06-3.32a3.63,3.63,0,0,0,.29,7.25Z" transform="translate(-57.53 0)"/><g class="cls-3"><path class="cls-4" d="M228.63,108.07h.05a.26.26,0,0,0,.2-.32c-9.13-38.3-17.89-65.47-24.65-76.51a5.88,5.88,0,0,1-.3-.51.28.28,0,0,0-.36-.13.27.27,0,0,0-.14.36c.06.12.16.29.33.57,6.74,11,15.47,38.1,24.59,76.34A.27.27,0,0,0,228.63,108.07Z" transform="translate(-57.53 0)"/><path class="cls-4" d="M199.2,29c.8,1.24,5.07,3.68,5.43,3.45s-.13-5.12-.94-6.36A2.68,2.68,0,1,0,199.2,29Z" transform="translate(-57.53 0)"/><path class="cls-4" d="M207.48,33.11c-.52,1.43.12,6.42.52,6.57s4.11-3.27,4.63-4.69a2.74,2.74,0,0,0-5.15-1.88Z" transform="translate(-57.53 0)"/><path class="cls-4" d="M201.73,41.45c1.51.18,6.23-1.56,6.28-2s-4.1-3.27-5.61-3.45a2.74,2.74,0,0,0-.67,5.44Z" transform="translate(-57.53 0)"/><path class="cls-4" d="M219,58.81c-1.13,2.28-1,10.73-.32,11s7.45-4.71,8.57-7A4.6,4.6,0,1,0,219,58.81Z" transform="translate(-57.53 0)"/><path class="cls-4" d="M207.86,71.68c2.48.58,10.67-1.48,10.84-2.18s-6.26-6.2-8.74-6.78a4.6,4.6,0,0,0-2.1,9Z" transform="translate(-57.53 0)"/><path class="cls-4" d="M225,68.6c-2,2.42-4,12.55-3.35,13.11s10.15-3.61,12.11-6A5.63,5.63,0,0,0,225,68.6Z" transform="translate(-57.53 0)"/><path class="cls-4" d="M209.23,85.37c3.09.4,12.8-3.14,12.92-4s-8.4-6.75-11.49-7.14a5.63,5.63,0,1,0-1.43,11.16Z" transform="translate(-57.53 0)"/><path class="cls-4" d="M228.38,81.11c-2,2.42-4,12.55-3.35,13.11s10.15-3.61,12.11-6a5.63,5.63,0,0,0-8.76-7.08Z" transform="translate(-57.53 0)"/><path class="cls-4" d="M212.6,97.88c3.09.4,12.8-3.14,12.92-4s-8.4-6.75-11.49-7.14a5.63,5.63,0,1,0-1.43,11.16Z" transform="translate(-57.53 0)"/><path class="cls-4" d="M236.43,97.05c-2.73,1.5-8.51,10.07-8.09,10.84s10.77.54,13.49-1a5.63,5.63,0,1,0-5.4-9.88Z" transform="translate(-57.53 0)"/><path class="cls-4" d="M215.51,110.23c3,.78,13.09-1.51,13.32-2.37s-7.49-7.75-10.5-8.53a5.63,5.63,0,0,0-2.82,10.9Z" transform="translate(-57.53 0)"/><path class="cls-4" d="M211,41.11c-.53,1.45.12,6.52.53,6.67s4.17-3.31,4.7-4.76A2.78,2.78,0,0,0,211,41.11Z" transform="translate(-57.53 0)"/><path class="cls-4" d="M205.37,49.69c1.53.18,6.33-1.59,6.38-2s-4.17-3.32-5.7-3.51a2.79,2.79,0,0,0-.68,5.53Z" transform="translate(-57.53 0)"/><path class="cls-4" d="M215.15,48.59c-.92,2-.59,9.24,0,9.5s6.3-4.2,7.21-6.19a4,4,0,1,0-7.18-3.31Z" transform="translate(-57.53 0)"/><path class="cls-4" d="M206.14,60.72c2.17.27,9-2.25,9.06-2.87s-5.92-4.72-8.09-5a4,4,0,0,0-1,7.85Z" transform="translate(-57.53 0)"/></g><path class="cls-5" d="M251.27,116.84A19,19,0,0,1,233.2,130H79a21.36,21.36,0,0,1-21.26-19.17c-.7-6.94.57-14.07,3.49-19.4H249.78A37,37,0,0,1,251.27,116.84Z" transform="translate(-57.53 0)"/><g class="cls-3"><path class="cls-6" d="M176.45,30.33h-35.1a3.13,3.13,0,0,0-3.13,3.13V49a3.13,3.13,0,0,0,3.13,3.12h3.43v6l3.72-6h27.95A3.12,3.12,0,0,0,179.57,49V33.46A3.13,3.13,0,0,0,176.45,30.33Z" transform="translate(-57.53 0)"/></g><circle class="cls-2" cx="87.47" cy="38.97" r="3.58"/><rect class="cls-2" x="94.85" y="35.39" width="11.16" height="0.94" rx="0.39"/><rect class="cls-2" x="94.85" y="38.72" width="24.07" height="0.94" rx="0.39"/><rect class="cls-2" x="94.85" y="41.22" width="18.54" height="0.94" rx="0.39"/><path class="cls-2" d="M149.35,48.26a1.13,1.13,0,1,0-1.12,1.13A1.13,1.13,0,0,0,149.35,48.26Z" transform="translate(-57.53 0)"/><path class="cls-2" d="M155.21,49.39a1.13,1.13,0,1,0-1.12-1.13A1.13,1.13,0,0,0,155.21,49.39Z" transform="translate(-57.53 0)"/><path class="cls-2" d="M161.65,49.39a1.13,1.13,0,1,0-1.12-1.13A1.14,1.14,0,0,0,161.65,49.39Z" transform="translate(-57.53 0)"/><polygon class="cls-7" points="67.09 21.76 44.59 14.71 64.04 104.85 83.03 95.79 67.09 21.76"/><path class="cls-8" d="M121.57,104.85,102.12,14.71a3.35,3.35,0,0,0-2.41,3.93l18.53,86.45a3.22,3.22,0,0,0,3.14,2.54H218a1.76,1.76,0,0,0,1.76-1.76v-2.1Z" transform="translate(-57.53 0)"/><path class="cls-1" d="M121.57,104.85h97.17a1,1,0,0,0,.76-1.66l-5.74-6.71a2,2,0,0,0-1.5-.69h-71.7Z" transform="translate(-57.53 0)"/><path class="cls-7" d="M144.48,97.25l-7.8,4.93a.52.52,0,0,0,.27,1H175.6a1,1,0,0,0,1-.89l.37-5a.39.39,0,0,0-.38-.41H146.07A3,3,0,0,0,144.48,97.25Z" transform="translate(-57.53 0)"/><path class="cls-2" d="M206.18,97.78H194.26a.43.43,0,0,0-.4.57l1.47,4a.72.72,0,0,0,.67.47h12.22a.71.71,0,0,0,.61-1.08L206.62,98A.52.52,0,0,0,206.18,97.78Z" transform="translate(-57.53 0)"/><rect class="cls-7" x="207.31" y="87.49" width="3.35" height="54.29" transform="translate(64.87 336.71) rotate(-97.45)"/><polygon class="cls-9" points="184.05 110.37 178.59 112.78 178.15 109.45 184.05 110.37"/><rect class="cls-9" x="179.17" y="116.65" width="2.38" height="3.44" transform="translate(28.83 312.56) rotate(-97.45)"/><rect class="cls-9" x="186.6" y="116.98" width="3.35" height="0.73" transform="translate(38.79 319.23) rotate(-97.45)"/><path class="cls-6" d="M72.43,56.24a9,9,0,0,0,1.87,2l4.47,3.88c1.73,1.5,3.58,3.2,3.93,5.47.25,1.64-.33,3.4.29,4.93s2.48,2.5,4.22,2.75,3.53,0,5.27.29a5,5,0,0,1,4.38,3.31c.33.91.26,1.89,1.53,1.84,1,0,1.83-1.13,2-2a4.94,4.94,0,0,0-.86-3.81c-.72-1.13-1.68-2.09-2.46-3.18a12,12,0,0,1-2.19-6.37c-.13-2.87.72-6-.82-8.44a10,10,0,0,0-4-3.08c-2.88-1.54-6-3.51-6.67-6.72-.26-1.33-.07-2.84-.9-3.91a4.06,4.06,0,0,0-2.87-1.28,2.65,2.65,0,0,0-2.63.87c-.47.76-.17,1.74-.25,2.62-.21,2.39-2.94,3.63-4.25,5.64A5,5,0,0,0,72.43,56.24Zm4-3.47a2.46,2.46,0,0,1,2.69-1.08,1.92,1.92,0,0,1,.92.52,6.14,6.14,0,0,1,.84,1.37,4.11,4.11,0,0,0,1.7,1.58,8.18,8.18,0,0,0,3.11.62c1.71.1,5,.53,4.93,2.94,0,1.4-1.47,1.76-2.64,1.81-1.81.09-3.2-.7-4.81-1.36-2.07-.84-4.57-1-6.16-2.76A3.19,3.19,0,0,1,76.4,52.77Z" transform="translate(-57.53 0)"/><rect class="cls-9" x="24.66" y="82.17" width="28.97" height="35" rx="1.39"/><path class="cls-10" d="M73.14,108.69H84.37a2,2,0,0,0,0-4H75.15V91.43h8.13a2,2,0,0,0,0-4H73.14a2,2,0,0,0-2,2v17.27A2,2,0,0,0,73.14,108.69Z" transform="translate(-57.53 0)"/><path class="cls-10" d="M92.32,82.17v35H83.58a1.38,1.38,0,0,1-1.38-1.39V83.56a1.38,1.38,0,0,1,1.38-1.39Z" transform="translate(-57.53 0)"/><rect class="cls-11" x="46.87" y="83.96" width="1.6" height="30.21"/><path class="cls-12" d="M158.86,72s-3.07,5.45-3.64,7.81a46.44,46.44,0,0,0-.18,5.29c1.38.33,3.19-1.36,3.56-4.28s3.57-4.66,5.25-6.32l6.7-6.61Z" transform="translate(-57.53 0)"/><path class="cls-13" d="M157.58,70.45a42.6,42.6,0,0,0-9.19,9.61c-.81,1.27-2.89,7.65-2.89,7.65,1.85,1.16,5.34-.41,7.33-4.5s7.65-4.8,10.81-6.63c11-6.41,13.41-2.49,13.41-2.49l-4.56-11.56S161,68,157.58,70.45Z" transform="translate(-57.53 0)"/><path class="cls-13" d="M225,51.17l3.2,18.26c-6.32.77-29.3,2.69-33.26,6.91a36.7,36.7,0,0,1-7.78,6.38,51,51,0,0,1-5,2.62A29.31,29.31,0,0,0,177.7,88c-1.15.81-2.11,1.58-2.64,2-.9.78-4.18,4.24-5.23,4.38-.48.07-1.28-1.07-1.61-2a1.09,1.09,0,0,1-.05-.17,1.85,1.85,0,0,1-.09-.54,4.82,4.82,0,0,1,.71-2.4,22.35,22.35,0,0,1,3.72-4.45l.76-.74c3.25-3.15,3.94-5.18,4.17-7.16a4.45,4.45,0,0,0-1.23-4c-.16-.17-17.77,0-17.92.06a7.6,7.6,0,0,1-3.21-.51c3.91-3,13.26-10.44,14.59-11.14,3.32-1.75,18.44-2.79,26.16-4.12C198,56.86,218.42,52.2,225,51.17Z" transform="translate(-57.53 0)"/><path class="cls-13" d="M197.65,74.25h0A4.87,4.87,0,0,0,195,76.36c-1.46,2.6-7.51,6.61-12.78,9a35.06,35.06,0,0,0-7.13,4.7c-.91.78-4.19,4.24-5.23,4.38-.62.09-1.75-1.77-1.76-2.72,0-2,1.78-4.29,5.19-7.6,3.26-3.15,3.94-5.18,4.17-7.16C177.59,75.68,199.27,73.64,197.65,74.25Z" transform="translate(-57.53 0)"/><path class="cls-6" d="M201.62,55.32c-.38,0-11,2.66-11,2.66l5.49,18.49s9.54-.88,9.53-1.16.22-15.09.22-15.09Z" transform="translate(-57.53 0)"/><path class="cls-9" d="M244.25,78.79c-14.25-.93-28.7-3.06-31.61-2.49-4.81,1-7.87,1.56-8.82-3.43a24.19,24.19,0,0,1-.32-4.68c.1-8.46-3.68-8.79-3.91-11.74a5.32,5.32,0,0,1,.24-1.86C201,50.7,233.59,46,247.4,44.23,248.13,55.55,243,68.94,244.25,78.79Z" transform="translate(-57.53 0)"/><circle class="cls-7" cx="141.89" cy="72.02" r="1.73"/><path class="cls-1" d="M165.51,114.58l0,.43c0,.46-.48.77-1.11.68l-5-.66c-.64-.09-1.18-.53-1.2-1l0-.62c0-.09.09-.15.22-.14s.23.11.23.2l0,.62a.79.79,0,0,0,.73.6l5,.66c.39.06.69-.13.68-.41l0-.43a.8.8,0,0,0-.73-.6l-3.32-.45a.25.25,0,0,1-.24-.19c0-.09.1-.15.22-.13l3.32.44A1.3,1.3,0,0,1,165.51,114.58Z" transform="translate(-57.53 0)"/><path class="cls-1" d="M170.61,115.07l0,.78c0,.72-.8,1.18-1.86,1l-7.52-1a.26.26,0,0,1-.24-.19c0-.09.1-.15.22-.14l7.52,1c.81.1,1.45-.24,1.43-.78l0-.78c0-.53-.72-1.06-1.53-1.17l-8.56-1.14c-.82-.11-1.46.24-1.43.78,0,.09-.09.15-.22.13s-.23-.1-.23-.19c0-.72.8-1.19,1.86-1l8.56,1.14C169.68,113.66,170.57,114.36,170.61,115.07Z" transform="translate(-57.53 0)"/><path class="cls-14" d="M146.54,120.61l.13.42c.13.44-.28.85-.92.92l-5,.53a1.31,1.31,0,0,1-1.4-.68l-.17-.6c0-.08.05-.16.18-.18s.25,0,.27.14l.18.59a.77.77,0,0,0,.85.41l5-.52c.39,0,.64-.3.56-.57l-.12-.41a.77.77,0,0,0-.85-.41l-3.33.35c-.12,0-.25,0-.27-.14s.05-.16.18-.18l3.33-.35A1.29,1.29,0,0,1,146.54,120.61Z" transform="translate(-57.53 0)"/><path class="cls-14" d="M151.62,119.89l.22.75c.2.69-.5,1.34-1.56,1.45l-7.55.79a.24.24,0,0,1-.27-.13c0-.09,0-.17.18-.18l7.54-.79c.82-.09,1.36-.58,1.21-1.1l-.22-.74a1.64,1.64,0,0,0-1.76-.78l-8.6.9c-.81.09-1.35.58-1.2,1.1,0,.08-.05.16-.18.18s-.25,0-.27-.14c-.21-.69.49-1.34,1.56-1.45l8.59-.9A2.14,2.14,0,0,1,151.62,119.89Z" transform="translate(-57.53 0)"/><rect class="cls-1" x="140.67" y="100.09" width="10.51" height="0.27" transform="translate(-87.54 119.87) rotate(-40.85)"/><rect class="cls-1" x="147.1" y="100.01" width="9.81" height="0.27" transform="translate(-78.83 155.82) rotate(-51.19)"/><rect class="cls-1" x="153.13" y="99.86" width="8.61" height="0.27" transform="translate(-67.63 181.95) rotate(-58.49)"/><rect class="cls-1" x="158.96" y="99.74" width="7.77" height="0.27" transform="translate(-51.96 208.3) rotate(-66.1)"/><rect class="cls-1" x="168.89" y="100.01" width="8.02" height="0.27" transform="translate(-32.4 234.64) rotate(-72.39)"/><rect class="cls-1" x="163.69" y="100.01" width="8.16" height="0.27" transform="matrix(0.35, -0.94, 0.94, 0.35, -42.27, 222.29)"/></svg>