<svg width="262" height="76" viewBox="0 0 262 76" fill="none" xmlns="http://www.w3.org/2000/svg">
<g clip-path="url(#clip0_73_181)">
<path d="M241.609 35.352H20.8118C9.54996 35.352 0.42041 44.4513 0.42041 55.676C0.42041 66.9006 9.54996 76 20.8118 76H241.609C252.87 76 262 66.9006 262 55.676C262 44.4513 252.87 35.352 241.609 35.352Z" fill="#0073BB"/>
<path d="M7.84156 1.1676H12.9646L20.8679 24.3631H15.3973L14.3211 20.8659H6.47952L5.40333 24.3631H0L7.84156 1.1676ZM12.931 16.3855L10.3695 8.16201L7.84156 16.3855H12.931Z" fill="#232F3E"/>
<path d="M19.1919 1.1676H24.5672L28.2049 16.1061L32.504 1.1676H37.4702L41.9262 16.2011L45.435 1.1676H50.6814L44.7064 24.3631H39.5217L34.9703 9.4581L30.4189 24.3631H25.2342L19.1919 1.1676Z" fill="#232F3E"/>
<path d="M53.3047 24.3631V19.4469C55.3898 19.6369 56.4996 19.6983 57.2899 19.6983C59.6273 19.6983 60.6418 19.1006 60.6418 17.7151C60.6418 16.8324 60.2326 16.1061 58.652 15.067L56.2474 13.4581C53.9101 11.8827 52.705 9.86592 52.705 7.3743C52.705 3.30726 55.6757 0.849163 60.6418 0.849163C61.746 0.849163 62.9175 0.977655 64.2123 1.16201V5.82682C62.9175 5.63687 61.7124 5.51397 60.7987 5.51397C58.9042 5.51397 57.9513 6.0838 57.9513 7.21788C57.9513 8.00559 58.3941 8.63687 59.6889 9.48603L61.7124 10.8101C64.6551 12.7318 65.9499 14.8436 65.9499 17.648C65.9499 22.1229 62.8502 24.676 57.4133 24.676C56.5276 24.676 55.2945 24.6145 53.3047 24.3631Z" fill="#232F3E"/>
<path d="M76.7677 1.1676H81.9244L88.7234 12.5754L95.4271 1.1676H100.489V24.3631H95.556V10.1173L90.2424 19.1955H87.0811L81.7058 10.0559V24.3631H76.7733V1.1676H76.7677Z" fill="#232F3E"/>
<path d="M103.768 16.0112C103.768 10.8771 107.596 7.34637 112.114 7.34637C113.98 7.34637 115.813 7.97766 116.951 9.17319L116.984 7.65922H121.412V24.3631H116.984L116.951 22.8492C115.813 24.0447 113.98 24.676 112.114 24.676C107.59 24.676 103.768 21.1453 103.768 16.0112ZM112.781 20.1397C115.056 20.1397 116.732 18.5307 116.732 16.0112C116.732 13.4916 115.056 11.8827 112.781 11.8827C110.505 11.8827 108.767 13.4916 108.767 16.0112C108.767 18.5307 110.477 20.1397 112.781 20.1397Z" fill="#232F3E"/>
<path d="M130.739 7.65922H132.892V12.1341H131.216C130.201 12.1341 129.758 12.5754 129.758 13.581V24.3575H124.764V13.7039C124.764 9.51396 127.006 7.65363 130.739 7.65363V7.65922Z" fill="#232F3E"/>
<path d="M140.319 17.4916V24.3631H135.324V0H140.319V13.9944L144.903 7.65922H150.436L144.775 15.5698L150.593 24.3631H144.679L140.313 17.4916H140.319Z" fill="#232F3E"/>
<path d="M151.002 16.0726C151.002 10.8101 154.796 7.2514 159.667 7.2514C164.252 7.2514 168.456 10.3687 167.761 17.3687H155.716C156.192 19.352 157.801 20.5531 160.015 20.5531C161.786 20.5531 163.305 19.7989 164.538 18.2514L167.761 20.9274C165.895 23.3855 163.238 24.7709 159.92 24.7709C154.578 24.7709 151.002 21.1788 151.002 16.0726ZM163.143 13.9274C162.761 12.2235 161.5 11.2793 159.634 11.2793C157.767 11.2793 156.315 12.3184 155.777 13.9274H163.143Z" fill="#232F3E"/>
<path d="M171.999 12.1341H170.009V7.65922H171.999V3.3743L176.993 1.76536V7.65922H179.016V12.1341H176.993L176.959 24.3631H171.965L171.999 12.1341Z" fill="#232F3E"/>
<path d="M182.43 7.65922H186.858L186.891 9.17319C188.029 7.97766 189.862 7.34637 191.729 7.34637C196.252 7.34637 200.075 10.8771 200.075 16.0112C200.075 21.1453 196.246 24.676 191.729 24.676C190.086 24.676 188.472 24.2011 187.334 23.257C187.396 24.6425 187.43 26.1564 187.43 27.5419V30.6592H182.435V7.65922H182.43ZM191.062 20.1397C193.371 20.1397 195.075 18.5307 195.075 16.0112C195.075 13.4916 193.365 11.8827 191.062 11.8827C188.758 11.8827 187.11 13.4916 187.11 16.0112C187.11 18.5307 188.786 20.1397 191.062 20.1397Z" fill="#232F3E"/>
<path d="M202.827 0H207.821V24.3631H202.827V0Z" fill="#232F3E"/>
<path d="M210.573 16.0112C210.573 10.8771 214.401 7.34637 218.919 7.34637C220.786 7.34637 222.618 7.97766 223.756 9.17319L223.79 7.65922H228.218V24.3631H223.79L223.756 22.8492C222.618 24.0447 220.786 24.676 218.919 24.676C214.396 24.676 210.573 21.1453 210.573 16.0112ZM219.58 20.1397C221.856 20.1397 223.532 18.5307 223.532 16.0112C223.532 13.4916 221.856 11.8827 219.58 11.8827C217.305 11.8827 215.567 13.4916 215.567 16.0112C215.567 18.5307 217.277 20.1397 219.58 20.1397Z" fill="#232F3E"/>
<path d="M230.964 16.0391C230.964 10.8994 234.664 7.43575 239.848 7.43575C240.605 7.43575 241.491 7.4972 242.472 7.6257V12.1341C241.715 12.0391 240.986 11.9777 240.415 11.9777C237.506 11.9777 235.953 13.6816 235.953 16.0447C235.953 18.4078 237.5 20.0782 240.415 20.0782C240.981 20.0782 241.709 20.0168 242.472 19.9218V24.4581C241.491 24.5866 240.605 24.648 239.848 24.648C234.664 24.648 230.964 21.1788 230.964 16.0447V16.0391Z" fill="#232F3E"/>
<path d="M244.748 16.0726C244.748 10.8101 248.542 7.2514 253.413 7.2514C257.998 7.2514 262.202 10.3687 261.507 17.3687H249.461C249.938 19.352 251.547 20.5531 253.761 20.5531C255.532 20.5531 257.051 19.7989 258.284 18.2514L261.507 20.9274C259.64 23.3855 256.984 24.7709 253.665 24.7709C248.324 24.7709 244.748 21.1788 244.748 16.0726ZM256.888 13.9274C256.507 12.2235 255.246 11.2793 253.379 11.2793C251.513 11.2793 250.061 12.3184 249.523 13.9274H256.888Z" fill="#232F3E"/>
<path d="M48.0639 54.4916C49.2354 54.4916 49.9024 54.4637 50.6254 54.3799C50.5414 54.933 50.5414 55.2402 50.4573 57.8492C50.4012 59.8212 50.177 63.0391 50.0369 64.1732C49.7847 66.3911 49.3699 67.3911 48.4507 68C47.5594 68.581 46.472 68.8045 44.415 68.8045C44.0787 68.8045 43.5798 68.8045 42.9128 68.7765C42.8567 67.9441 42.8287 67.6648 42.7166 67C41.9375 67.1397 40.9342 67.2235 39.5161 67.2235C35.5084 67.2235 34.6172 66.8045 34.6172 65.0056V61.2067C34.2249 61.486 34.0903 61.5978 33.5859 61.8994C33.3617 60.5698 33.115 59.7095 32.4985 58.2067C32.3584 58.2626 32.3023 58.2905 32.1622 58.3464V65.4469C32.1622 68.2235 31.271 68.9162 27.8182 68.9162C27.2633 68.9162 26.8149 68.8883 25.9237 68.8324C25.7555 67.1676 25.5874 66.419 25.0325 64.9218C25.8676 65.0056 26.5346 65.0335 27.1792 65.0335C27.8743 65.0335 28.0424 64.8659 28.0424 64.1173V59.7318C27.2633 59.9832 26.8709 60.095 26.5402 60.2011C26.26 60.2756 26.0096 60.3501 25.7892 60.4246C25.6584 60.4805 25.5463 60.5177 25.4529 60.5363L25.0605 56.3184C25.8116 56.2346 26.5907 56.067 28.0368 55.6816V51.4916H27.2857C26.6467 51.4916 26.0862 51.5196 25.3351 51.6034V47.5251C25.9741 47.6369 26.5346 47.6648 27.3138 47.6648H28.0368V45.7765C28.0368 44.2793 28.0088 43.7207 27.8687 42.9162H32.2967C32.1846 43.7765 32.1566 44.3296 32.1566 45.7765V47.6648H32.9077C33.328 47.6648 33.4906 47.6648 34.0791 47.6089V51.5475C33.5242 51.5196 33.3 51.4916 32.9077 51.4916H32.1566V54.4302C32.9077 54.1508 33.0198 54.1229 33.8269 53.7933L33.911 56.8156C35.1609 55.8156 36.1082 54.7598 36.7247 53.6257C35.5252 53.6257 35.4972 53.6257 34.7461 53.6816C34.8022 52.6816 34.8302 52.0168 34.8302 50.8771V46.0503C34.8302 44.9665 34.8022 44.1899 34.7181 43.4693C35.6093 43.5531 36.5005 43.6089 37.4758 43.6089H46.7187C47.778 43.6089 48.6132 43.5531 49.3923 43.4693C49.3082 44.2737 49.2802 45.1899 49.2802 46.3296V50.9106C49.2802 52.1564 49.3082 52.7989 49.3923 53.7151C48.5852 53.6592 47.722 53.6313 46.5225 53.6313H41.0967C40.9006 54.0224 40.8445 54.1285 40.6259 54.4916H48.0583H48.0639ZM38.4848 58.4581C38.4567 58.7374 38.4287 59.095 38.4287 59.5419C40.2952 59.1788 41.9095 58.6257 43.2435 57.8771H38.1765C37.9523 58.1285 37.8962 58.2123 37.6496 58.4581H38.4848ZM38.4287 63.3129C38.4287 63.7821 38.5969 63.838 39.7627 63.838C41.2649 63.838 41.349 63.7263 41.405 61.9497C40.3176 62.2291 39.6786 62.3687 38.4287 62.5587V63.3073V63.3129ZM38.8211 47.6369H45.2501V46.7765H38.8211V47.6369ZM38.8211 50.9386H45.2501V50.0503H38.8211V50.9386ZM45.3342 60.7318C43.9161 61.257 43.1594 61.4805 41.7693 61.8715C43.1594 62.3129 43.7199 62.4525 44.9699 62.5922C44.8578 63.8436 44.8017 64.257 44.6336 64.9497H44.8297C45.5248 64.9497 45.721 64.7263 45.8891 63.6201C46.0853 62.5922 46.1133 61.5922 46.1974 57.8771H43.4397L45.3342 60.7374V60.7318Z" fill="white"/>
<path d="M63.0464 66.5587V67.1117C63.0464 68 63.0744 68.4134 63.1865 68.9441H59.2069C59.291 68.4469 59.319 67.9721 59.319 67.1676V66.5587H55.4515C54.252 66.5587 53.669 66.5866 52.8899 66.6704V63.5084C53.641 63.5922 54.1959 63.6201 55.4515 63.6201H59.319V62.8156H56.7574C55.3113 62.8156 54.6667 62.8436 54.1118 62.8715C54.1679 62.1788 54.1959 61.7877 54.1959 60.8715V57.5698C54.1959 56.6257 54.1679 56.2682 54.1118 55.5419C54.7508 55.5978 55.1712 55.5978 56.7574 55.5978H59.319V54.8212H55.9783C54.7788 54.8212 54.28 54.8492 53.4168 54.933V52.1006C54.252 52.1844 54.7228 52.2123 55.9783 52.2123H59.319V51.4078H55.8102C54.4201 51.4078 53.6971 51.4358 52.8339 51.5475V48.0782C53.5849 48.162 54.4201 48.1899 55.8102 48.1899H59.0668V47.3296H56.8976C55.7261 47.3296 55.003 47.3575 54.28 47.4413V44.3911C55.0311 44.4749 55.6701 44.5028 56.8976 44.5028H59.0668C59.0668 43.6145 59.0387 43.2793 58.9266 42.838H63.2706C63.1585 43.2793 63.1305 43.6145 63.1305 44.5028H65.3052C66.5552 44.5028 67.1718 44.4749 67.8948 44.3911V47.4413C67.1718 47.3575 66.4767 47.3296 65.3052 47.3296H63.1305V48.1899H69.0046C68.9766 47.1341 68.9486 46.3575 68.9486 45.2514C68.9205 44.1117 68.8645 43.4469 68.7804 42.9218H73.1524C73.0403 43.5307 73.0123 43.7542 73.0123 44.5587L75.798 43.1173C76.8294 44.3631 77.4684 45.3073 78.3315 46.8659L75.9382 48.1955C77.1881 48.1955 77.8607 48.1676 78.5838 48.0838V51.5531C77.7766 51.4413 77.0255 51.4134 75.6075 51.4134H73.0739C73.158 53.6872 73.2421 55.0782 73.4102 56.771C74.1894 54.9944 74.6041 53.6927 74.7443 52.5531L78.5277 53.9106C78.4156 54.162 78.1914 54.6592 77.8047 55.6034C76.9134 57.8492 75.826 60.0168 74.6322 61.8771C75.075 63.0168 75.3552 63.514 75.7756 64.0112C76.0278 63.4302 76.196 62.6816 76.3866 60.7095C77.4459 61.7654 78.0289 62.2067 79.2284 62.8436C78.9481 64.676 78.7015 65.648 78.2531 66.6983C77.6701 68.0838 76.7509 68.8883 75.7756 68.8883C74.4976 68.8883 73.2981 67.8045 72.0146 65.5028C70.8992 66.8324 69.9855 67.7486 68.4777 69.0559C67.9228 68.1676 67.4184 67.5307 66.5832 66.5587H63.0464ZM59.3134 57.5419H57.559V58.3743H59.3134V57.5419ZM59.3134 60.0391H57.559V60.8715H59.3134V60.0391ZM67.637 63.6201H68.6403C69.3073 62.8994 69.7557 62.4246 70.4507 61.5363C69.7837 59.0391 69.4194 56.2067 69.1448 51.4078H63.0464V52.2123H66.0507C67.3847 52.2123 67.9172 52.1844 68.6403 52.1006V54.933C67.9453 54.8492 67.3063 54.8212 66.0507 54.8212H63.0464V55.5978H65.692C67.1661 55.5978 67.6426 55.5978 68.3376 55.5419C68.2535 56.2346 68.2535 56.3184 68.2535 57.5698V60.8715C68.2535 62.067 68.2535 62.2011 68.3376 62.8715C67.6426 62.8436 67.1381 62.8156 65.692 62.8156H63.0464V63.6201H67.6426H67.637ZM64.9353 58.3743V57.5419H63.0408V58.3743H64.9353ZM64.9353 60.8715V60.0391H63.0408V60.8715H64.9353ZM75.1534 48.1899C74.4024 46.7765 73.7073 45.6369 73.0123 44.8045L73.0403 48.1899H75.159H75.1534Z" fill="white"/>
<path d="M91.0831 45.2514C91.0831 43.9777 91.0551 43.419 90.943 42.7821H95.7858C95.6737 43.3911 95.6457 43.9777 95.6457 45.2514V45.8324H102.327C104.025 45.8324 105.303 45.7765 106.195 45.6648V49.9106C105.359 49.7989 103.969 49.743 102.355 49.743H95.6457V52.3799H99.4067C100.578 52.3799 101.217 52.352 101.744 52.2402L104.222 54.7374C103.997 55.0168 103.515 55.6927 102.775 56.7654C101.492 58.5978 99.687 60.5363 97.8765 62.0391C100.993 63.4246 102.972 63.8994 106.867 64.3129C106.004 65.8659 105.617 66.7821 104.889 68.9162C100.102 67.9721 97.5402 67.0279 93.7792 64.8659C90.0181 66.9497 86.9017 68.0279 82.4232 68.8324C81.8963 67.2514 81.3638 66.2235 80.3885 64.6145C84.5083 64.0894 86.9017 63.4749 89.9621 62.1732C88.3198 60.676 87.5127 59.7877 85.7302 57.4581L88.9027 56.1844H86.5093C85.1473 56.1844 83.8918 56.2402 82.8884 56.352V52.2179C83.7236 52.3296 85.1977 52.3855 86.6495 52.3855H91.0775V49.7486H84.783C83.1407 49.7486 81.8347 49.8045 80.9435 49.9162V45.6704C81.8627 45.7821 83.1407 45.838 84.811 45.838H91.0719V45.257L91.0831 45.2514ZM89.9397 56.1844C91.3297 57.933 92.277 58.8492 93.9193 59.9832C95.5896 58.7877 96.4528 57.9553 97.8429 56.1844H89.9341H89.9397Z" fill="white"/>
<path d="M133.29 60.5978C133.047 60.892 132.694 61.3538 132.23 61.9832C131.647 62.7318 130.896 63.5084 130.061 64.2849C131.703 64.7263 132.735 64.8939 134.876 65.0335C134.097 66.5587 133.705 67.5587 133.262 69.0559C130.392 68.4469 128.699 67.8324 126.693 66.7542C124.798 67.838 122.825 68.5866 120.79 69.0279C120.398 68.1117 120.095 67.5028 119.484 66.5866C118.705 67.4749 118.313 67.8603 117.259 68.7207C116.62 67.4972 116.2 66.8603 115.449 66C115.309 68.162 114.361 68.8045 111.385 68.8045C110.858 68.8045 110.298 68.7765 109.244 68.7486C109.132 67.1117 108.907 66.1676 108.353 64.7821C109.524 64.8939 110.051 64.9218 110.662 64.9218C111.273 64.9218 111.385 64.7542 111.385 64.0894V59.4022C110.159 59.6965 109.333 59.9088 108.907 60.0391L108.24 55.7654C109.076 55.7374 109.883 55.6257 111.385 55.352V51.4134H110.522C109.883 51.4134 109.35 51.4413 108.599 51.5251V47.4469C109.266 47.5587 109.771 47.5866 110.578 47.5866H111.385V45.6704C111.385 44.1732 111.357 43.6425 111.245 42.8101H115.617C115.505 43.6145 115.477 44.2235 115.477 45.6704V47.5866H116.06C116.502 47.5866 116.727 47.5866 117.231 47.5307V51.4693C116.704 51.4134 116.452 51.4134 116.06 51.4134H115.477V54.3799C116.06 54.2123 116.284 54.1285 117.007 53.9106L117.035 57.7095L115.477 58.2067V64.6425C117.562 62.9777 119.182 60.4804 120.017 57.676C118.789 57.676 118.347 57.7039 117.623 57.7877V54.3743C118.431 54.4581 119.154 54.486 120.129 54.486H120.656C120.693 54.2626 120.731 53.9292 120.768 53.486H120.185C119.406 53.486 118.655 53.514 117.876 53.5698V50.3799C118.347 50.4358 118.823 50.4637 119.406 50.4637C119.098 49.5475 118.683 48.743 118.156 48.0223L120.802 47.2458C119.714 47.3017 119.44 47.3296 117.96 47.3855C117.708 46.1117 117.461 45.3575 116.788 44.0838H117.848C123.083 44.0838 129.456 43.3911 131.434 42.5866L134.08 45.8603C133.161 46 131.855 46.1955 130.156 46.4134L133.968 47.2737C133.049 49.162 132.853 49.4916 132.242 50.4637C133.161 50.4637 133.525 50.4358 134.024 50.352V53.5978C133.189 53.514 132.326 53.486 131.266 53.486H124.865C124.828 53.7989 124.781 54.1322 124.725 54.486H131.126C132.712 54.486 133.716 54.4302 134.495 54.3464V57.8436C133.772 57.7318 132.382 57.676 131.126 57.676H124.081C123.968 58.0391 123.94 58.1453 123.856 58.5084H128.839C130.173 58.5084 130.734 58.4804 131.261 58.3966L133.295 60.5866L133.29 60.5978ZM125.857 46.8883C124.159 47.0279 124.075 47.0559 121.626 47.1955C122.236 48.2235 122.377 48.5251 122.881 49.7207L120.291 50.4693H124.551C124.187 49.3296 123.968 48.8324 123.245 47.6648L125.863 46.8883H125.857ZM120.426 65.3966C121.513 65.1732 122.461 64.8715 123.402 64.5084C122.651 63.8436 122.427 63.6201 121.9 63.095C121.373 64.0391 121.009 64.6201 120.426 65.3966ZM124.546 61.3464C125.213 61.8994 125.717 62.2905 126.468 62.7598C127.163 62.2346 127.388 62.0112 127.97 61.3464H124.546ZM128.419 50.4693C129.142 49.1676 129.534 48.1955 130.033 46.419C129.125 46.5307 128.012 46.6611 126.693 46.8101C127.303 47.7821 127.584 48.3352 128.027 49.6704L125.213 50.4749H128.413L128.419 50.4693Z" fill="white"/>
<path d="M152.779 48.7765V46.9441C152.779 45.3631 152.751 44.5307 152.639 43.838H157.65C157.575 44.3929 157.528 46.0391 157.509 48.7765H158.597C160.688 48.7765 161.467 48.7486 162.605 48.581V53.324C161.27 53.2123 160.491 53.1844 158.681 53.1844H157.453C157.397 55.3743 157.369 55.9888 157.257 57.0391C156.837 60.7877 155.587 63.3073 153.137 65.419C151.635 66.7207 150.189 67.4972 147.375 68.5531C146.484 66.7207 145.845 65.8324 144.343 64.3073C147.045 63.5028 148.463 62.8659 149.718 61.8659C151.613 60.3687 152.42 58.5642 152.639 55.4581C152.667 54.9609 152.667 54.7654 152.695 53.1844H146.821V56.2905C146.821 57.648 146.849 58.3966 146.933 59.1508H141.838C141.95 58.3743 142.006 57.4581 142.006 56.2402V53.1899H140.974C138.968 53.1899 138.609 53.1899 137.051 53.3296V48.5866C138.306 48.7542 138.861 48.7821 141.058 48.7821H142.006V46.7542C142.006 45.4525 141.978 44.838 141.838 43.8156H146.933C146.821 44.9274 146.821 45.0112 146.821 46.648V48.7821H152.779V48.7765Z" fill="white"/>
<path d="M164.751 53.1061C166.057 53.3017 167.565 53.3575 170.457 53.3575H183.764C186.55 53.3575 187.603 53.3017 189.47 53.1061V58.4637C188.136 58.324 186.908 58.2961 183.736 58.2961H170.485C167.369 58.2961 166.45 58.324 164.751 58.4637V53.1061Z" fill="white"/>
<path d="M212.725 51.4637C212.058 51.7989 212.002 51.8268 211.335 52.1285C207.188 54.1564 203.096 55.486 198.085 56.4302V59.5363C198.085 60.7021 198.122 61.4134 198.197 61.6704C198.365 62.1955 198.724 62.419 199.531 62.5307C200.506 62.6425 201.369 62.6983 202.485 62.6983C204.071 62.6983 206.246 62.5866 207.911 62.419C209.968 62.1955 211.055 62 212.697 61.5307L212.894 66.6648C212.227 66.6648 211.419 66.7207 210.024 66.8603C207.238 67.1117 204.122 67.2793 201.896 67.2793C198.085 67.2793 196.162 66.9441 194.879 66.0559C194.016 65.419 193.517 64.5028 193.321 63.0615C193.236 62.5084 193.208 61.7039 193.208 60.1229V48.0559C193.208 46.1955 193.152 45.2514 193.04 44.3631H198.247C198.107 45.2235 198.079 45.9162 198.079 48.0838V51.8324C201.42 51.1676 205.764 49.5587 208.684 47.8659C208.185 46.6704 207.597 45.6481 206.79 44.5084L209.547 43.6201C210.495 44.9218 211.218 46.257 211.857 47.8659L210.467 48.3631L212.72 51.4693L212.725 51.4637ZM213.449 42.3631C214.34 43.5866 215.007 44.7486 215.758 46.4972L213.112 47.4693C212.333 45.6369 211.666 44.419 210.831 43.2235L213.449 42.3631Z" fill="white"/>
<path d="M237.141 68.1173C234.72 65.067 232.271 62.6536 229.154 60.2346C226.537 63.3129 223.224 65.7542 218.908 67.838C217.933 65.8939 217.35 65.0615 215.792 63.4525C219.412 62.067 222.277 60.2626 224.81 57.8492C227.4 55.3799 229.098 52.9106 230.404 49.6927L223.168 49.8045C220.774 49.8603 219.883 49.9162 218.74 50.0838L218.6 45.1453C219.687 45.2849 220.438 45.3408 221.52 45.3408C221.744 45.3408 222.271 45.3408 223.078 45.3129L232.601 45.1732C233.907 45.1453 234.075 45.1453 234.826 44.8659L237.276 47.3631C236.861 47.7765 236.693 48.0559 236.273 49C234.798 52.4693 233.739 54.4134 232.181 56.4916C235.55 58.905 236.687 59.8771 241.031 64.0112L237.136 68.1173H237.141Z" fill="white"/>
</g>
<defs>
<clipPath id="clip0_73_181">
<rect width="262" height="76" fill="white"/>
</clipPath>
</defs>
</svg>
