<?xml version="1.0" encoding="utf-8"?>
<!-- Generator: Adobe Illustrator 25.4.1, SVG Export Plug-In . SVG Version: 6.00 Build 0)  -->
<svg version="1.1" id="レイヤー_1" xmlns="http://www.w3.org/2000/svg" xmlns:xlink="http://www.w3.org/1999/xlink" x="0px"
	 y="0px" viewBox="0 0 1060.9 206" style="enable-background:new 0 0 1060.9 206;" xml:space="preserve">
<style type="text/css">
	.st0{enable-background:new    ;}
</style>
<g class="st0">
	<path d="M231.3,48.5v116.1h-10.9V156h-69.4v9.1h-10.5V48.5H231.3z M150.9,58.7v37.8h69.4V58.7H150.9z M220.4,145.8v-39.1h-69.4
		v39.1H220.4z"/>
	<path d="M337,78.6c11.6,23.9,31.8,46.2,53.8,56.8c-2.5,2.1-6.2,6.2-7.7,9.1c-21.1-11.6-39.9-32.9-52.5-57.1v42.8h26.6v10.4h-26.6
		v26h-10.8v-26h-27.3v-10.4h27.3V87.4c-12.9,24.2-31.8,45.4-52.4,57.3c-1.5-2.5-5-6.4-7.4-8.4c21.3-11.1,41.6-33.7,53.3-57.7h-48.6
		V68.2h55V39h10.8v29.3H386v10.4H337z"/>
	<path d="M403.3,104.8c0-33.2,19.5-53.3,45.5-53.3c12.5,0,22.3,6.2,28.1,12.7l-7,8.4c-5.3-5.7-12.2-9.8-21-9.8
		c-19.5,0-32.3,16-32.3,41.6c0,25.9,12.3,42.1,31.9,42.1c9.8,0,17.2-4.3,23.8-11.5l7.1,8.1c-8.1,9.4-18.2,14.7-31.5,14.7
		C422.5,157.8,403.3,138.1,403.3,104.8z"/>
	<path d="M517.2,64.3h-31.1V53.2h75.2v11.1h-31.1V156h-13V64.3z"/>
	<path d="M569.9,104.3c0-32.9,18.1-52.9,43.8-52.9s43.8,20,43.8,52.9c0,32.9-18.1,53.5-43.8,53.5S569.9,137.2,569.9,104.3z
		 M644.3,104.3c0-25.8-12.2-41.6-30.5-41.6c-18.5,0-30.5,15.8-30.5,41.6c0,25.6,12,42.1,30.5,42.1
		C632.1,146.5,644.3,130,644.3,104.3z"/>
	<path d="M698.9,85.3v81.2h-9.8V85.3h-17.4v-9.5h17.4V39h9.8v36.8h16.5v9.5H698.9z M750.8,111.9c0,0,0,2.8-0.1,4.2
		c-1.1,31.8-2.2,43-5,46.8c-1.8,2.4-3.9,3.2-6.9,3.5c-2.4,0.3-6.4,0.3-10.4,0.1c-0.1-2.5-1-6.2-2.2-8.3c3.9,0.3,7,0.3,8.7,0.3
		c1.5,0,2.5-0.3,3.4-1.4c1.7-2.4,2.8-11.6,3.6-36.8h-11.2c-2.2,19.6-7.7,35.7-20.3,46.6c-1.3-2-3.9-5-5.9-6.4
		c10.9-9.1,15.4-23.2,17.2-40.2h-13.3v-8.4h14.1c0.3-4.6,0.4-9.5,0.6-14.4h9.1c-0.1,4.9-0.4,9.8-0.7,14.4H750.8z M755.7,62.6
		C751,78.2,741,89.4,721.1,96.8c-1-2.1-3.4-5.6-5.3-7.3c17.1-5.9,25.6-14.8,30-26.9h-24.5v-8.5h26.9c1-4.8,1.5-9.8,1.8-15.3h9.7
		c-0.3,5.5-1,10.5-1.8,15.3h34.7c0,0-0.1,2.7-0.4,4.1c-1.8,20.6-3.6,29.1-6.9,32.3c-2.2,2.4-4.6,3.2-8.3,3.5
		c-3.1,0.1-8.7,0.1-14.6-0.1c-0.3-2.8-1.3-6.4-2.8-9c5.9,0.6,11.3,0.7,13.6,0.7c2,0,3.1-0.1,4.2-1.3c2.1-1.8,3.4-7.7,4.8-21.7H755.7
		z M798,111.9c0,0,0,2.9-0.1,4.2c-1,31.8-2,43-4.9,46.8c-1.8,2.2-3.9,3.2-6.9,3.5c-2.7,0.3-7,0.3-11.5,0.1c-0.3-2.7-1.1-6.3-2.2-8.5
		c4.2,0.3,7.8,0.3,9.5,0.3c1.7,0,2.7,0,3.5-1.3c1.7-2.4,2.7-11.5,3.5-36.7h-12.5c-2.4,19.7-7.8,35.6-21.3,46.2c-1.3-2-3.8-5-6-6.6
		c11.6-8.8,16.2-22.5,18.2-39.6h-12.7v-8.4h13.6c0.3-4.6,0.4-9.5,0.6-14.6h9.2c-0.1,5-0.4,9.9-0.7,14.6H798z"/>
	<path d="M879.9,39.1c14.7,20.6,39.1,38.8,61,47.9c-2.4,2.5-4.9,6.2-6.7,9.2c-21.6-10.5-46.1-29.1-59.1-47.2
		c-11.3,16.8-34,36-57.8,47.7c-1.1-2.4-3.8-6.2-6-8.3c23.9-11.5,47.2-31.6,58-49.4H879.9z M818.6,108.7h115.1v9.7H868
		c-4.9,10.4-10.9,22.4-16.5,32.2c17.4-0.6,37.1-1.3,56.7-2.1c-5.7-6.6-12.3-13.4-18.5-18.9l8.8-4.8c12.9,11.1,26.5,26.2,32.9,36.5
		l-9.4,5.7c-1.7-2.8-3.8-6-6.4-9.4c-34.3,1.7-70.6,3.2-94.5,4.1l-1.4-10.2c6-0.1,13-0.3,20.6-0.6c5.3-9.7,11.3-22.4,15.1-32.6h-36.8
		V108.7z M908.6,82.1v9.5h-66.2v-9.5H908.6z"/>
</g>
</svg>
