<svg xmlns="http://www.w3.org/2000/svg" viewBox="0 0 696.76 185.21"><defs><style>.cls-1{fill:#4dd2ff;}.cls-2{fill:#333;}</style></defs><g id="レイヤー_2" data-name="レイヤー 2"><g id="レイヤー_1-2" data-name="レイヤー 1"><polygon class="cls-1" points="81.62 97.6 27.08 66.98 20.39 70.73 81.53 105.06 143.56 70.23 136.96 66.53 81.62 97.6"/><polygon class="cls-1" points="81.64 111.24 47.06 91.82 40.05 95.76 81.45 119 123.46 95.42 116.64 91.59 81.64 111.24"/><path class="cls-1" d="M81.16,91.8,0,46.23,82.35,0l81.16,45.57Z"/><path class="cls-2" d="M189.72,33.52c0-20.07,16.34-33.39,39.61-33.39,10.12,0,21.13,2.84,28.59,7.63,4.62,3,6.57,5.51,6.57,9.24,0,5.33-4.61,12.25-10.12,12.25-2,0-3.73-1.06-7.46-3-5.86-3-11.19-5.15-17.76-5.15-9.94,0-15.63,5-15.63,11.19,0,17.94,53.46,14.57,53.46,52.39,0,21.85-17.58,34.81-41.2,34.81-11.37,0-21.49-2.66-30.55-8.88-4.44-3-6.75-6-6.75-9.76,0-5.51,5.15-12.26,10.3-12.26,2.49,0,4.44,1.24,8,3.38,5.69,3.37,11.19,6.57,19.18,6.57,10.13,0,17.23-5,17.23-12.61C243.18,65.48,189.72,69.75,189.72,33.52Z"/><path class="cls-2" d="M312.44,55.36a35.65,35.65,0,0,0-14.74,3.55c-3,1.42-5.32,2.49-7.46,2.49-5.5,0-9.05-6.57-9.05-11.19,0-3.37,1.95-5.86,6.39-8.35,7.46-4.08,16.87-6,27-6,12.79,0,22.2,3.2,27.53,9.42,3.73,4.44,5.51,11.19,5.51,19.89v43.51c0,6.75-3.2,9.77-11.55,9.77-7.1,0-9.94-2.13-9.94-7.28v-1.42c-5.15,5.86-12.43,8.7-22,8.7-16.34,0-26.29-8.88-26.29-23.09,0-16,12.79-25,46.89-28.06V66C324.7,59.27,321.68,55.36,312.44,55.36ZM302,93.19c0,4.08,2.67,7.28,9.42,7.28a20.76,20.76,0,0,0,13.32-5V81.11C309.42,83.07,302,86.26,302,93.19Z"/><path class="cls-2" d="M397.51,55.36a35.65,35.65,0,0,0-14.74,3.55c-3,1.42-5.33,2.49-7.46,2.49-5.51,0-9.06-6.57-9.06-11.19,0-3.37,2-5.86,6.4-8.35,7.46-4.08,16.87-6,27-6,12.79,0,22.2,3.2,27.53,9.42,3.73,4.44,5.5,11.19,5.5,19.89v43.51c0,6.75-3.19,9.77-11.54,9.77-7.1,0-9.95-2.13-9.95-7.28v-1.42c-5.15,5.86-12.43,8.7-22,8.7-16.34,0-26.28-8.88-26.28-23.09,0-16,12.79-25,46.88-28.06V66C409.76,59.27,406.75,55.36,397.51,55.36ZM387,93.19c0,4.08,2.67,7.28,9.41,7.28a20.74,20.74,0,0,0,13.32-5V81.11C394.49,83.07,387,86.26,387,93.19Z"/><path class="cls-2" d="M449.37,33.52C449.37,13.45,465.71.13,489,.13,499.09.13,510.1,3,517.56,7.76c4.62,3,6.57,5.51,6.57,9.24,0,5.33-4.61,12.25-10.12,12.25-2,0-3.73-1.06-7.46-3-5.86-3-11.19-5.15-17.76-5.15-9.94,0-15.62,5-15.62,11.19,0,17.94,53.45,14.57,53.45,52.39,0,21.85-17.58,34.81-41.2,34.81-11.37,0-21.49-2.66-30.55-8.88-4.44-3-6.75-6-6.75-9.76,0-5.51,5.15-12.26,10.3-12.26,2.49,0,4.44,1.24,8,3.38,5.68,3.37,11.18,6.57,19.18,6.57,10.12,0,17.22-5,17.22-12.61C502.82,65.48,449.37,69.75,449.37,33.52Z"/><path class="cls-2" d="M593,108.82v-2c-4.44,7.29-13,11.73-23.8,11.73-9.76,0-17.58-3.56-22.37-11-3.2-5-4.8-11.89-4.8-20.6V45.77c0-6.39,3.91-9.59,11.9-9.59s11.9,3.2,11.9,9.59V83.24c0,4.09.53,7.64,2.31,10,2.13,3,5.5,4.62,10.3,4.62,5.51,0,10.3-2.13,13.32-6.22V45.77c0-6.39,3.91-9.59,11.9-9.59s11.9,3.2,11.9,9.59v63c0,6.39-3.91,9.59-11.37,9.59C595.88,118.41,592.87,114.5,593,108.82Z"/><path class="cls-2" d="M632.82,60.33c0-14.2,11.19-24.51,31.79-24.51,10.48,0,18.12,2.31,24.33,5.87,4.09,2.3,6.4,5,6.4,8.52,0,4.44-3.55,11-9.41,11-1.78,0-3.38-.71-7.46-2.49-5.86-2.48-10.66-3.9-15.1-3.9-4.79,0-7.81,1.77-7.81,5,0,11,41.2,6.39,41.2,34.28,0,15.09-11.72,24.68-32.5,24.68-10.66,0-18.12-2.13-25.58-6.57-4.26-2.48-6.57-5.33-6.57-9.06,0-4.08,3.2-11,9.59-11,2.31,0,4.44,1.07,7.11,2.49,5.5,2.84,10.12,5.15,16.34,5.15,5.32,0,8.88-1.78,8.88-5.33C674,82.89,632.82,87.68,632.82,60.33Z"/><path class="cls-2" d="M329.73,171.63a17.67,17.67,0,0,1-4.2-.42v9.87c0,2.52-1.54,3.78-4.76,3.78S316,183.6,316,181.08V145.66c0-2.52.07-5.11,4.06-6.23a37.55,37.55,0,0,1,8.54-.91c11.27,0,19.39,5,19.39,16.31C348,166.59,339.32,171.63,329.73,171.63Zm-.84-8.12c6,0,9.38-3,9.38-8.33,0-6-4.13-8.4-9.73-8.4a15.07,15.07,0,0,0-3,.28v16.1A14.44,14.44,0,0,0,328.89,163.51Z"/><path class="cls-2" d="M363.19,181.08c0,2.52-1.54,3.78-4.69,3.78s-4.69-1.26-4.69-3.78V140.76c0-2.52,1.54-3.78,4.69-3.78s4.69,1.26,4.69,3.78Z"/><path class="cls-2" d="M383.14,160a14,14,0,0,0-5.81,1.4,7.58,7.58,0,0,1-2.94,1c-2.17,0-3.57-2.59-3.57-4.41,0-1.33.77-2.31,2.52-3.29A22.3,22.3,0,0,1,384,152.31c5,0,8.75,1.26,10.85,3.71,1.47,1.75,2.17,4.41,2.17,7.84V181c0,2.66-1.26,3.85-4.55,3.85-2.8,0-3.92-.84-3.92-2.87v-.56c-2,2.31-4.9,3.43-8.68,3.43-6.44,0-10.36-3.5-10.36-9.1,0-6.3,5-9.87,18.48-11.06v-.49C388,161.55,386.78,160,383.14,160ZM379,174.92c0,1.61,1.05,2.87,3.71,2.87a8.17,8.17,0,0,0,5.25-2v-5.67C382,170.93,379,172.19,379,174.92Z"/><path class="cls-2" d="M428.15,180.45a3.24,3.24,0,0,1-1.68,2.94A14.46,14.46,0,0,1,419.4,185c-5,0-8.26-1.82-10-5-1.4-2.52-1.54-5.67-1.54-8.82V160.92H405.4c-2.52,0-3.78-1.26-3.78-3.92s1.26-3.92,3.78-3.92h2.45v-6.16c0-2.52,1.54-3.78,4.69-3.78s4.69,1.26,4.69,3.78v6.16h5.53c2.52,0,3.78,1.26,3.78,3.92s-1.26,3.92-3.78,3.92h-5.53v10.29c0,1.33,0,3.15.7,4.27a2.89,2.89,0,0,0,2.73,1.61,9,9,0,0,0,2.45-.42,4.87,4.87,0,0,1,1.75-.35C427.38,176.32,428.15,178.91,428.15,180.45Z"/><path class="cls-2" d="M457.55,142.3c0,1.68-.77,4.41-3.22,4.41-1.12,0-2.8-.56-4.41-.56a4.07,4.07,0,0,0-3.85,2,9.31,9.31,0,0,0-.63,4.2v.7h4.62c2.52,0,3.78,1.26,3.78,3.92s-1.26,3.92-3.78,3.92h-4.62v20.16c0,2.52-1.54,3.78-4.69,3.78s-4.69-1.26-4.69-3.78V160.92h-2.67c-2.51,0-3.78-1.26-3.78-3.92s1.27-3.92,3.78-3.92h2.67v-.7c0-1.89,0-5.88,2.24-9s6.23-5,11.06-5a15.36,15.36,0,0,1,6.16,1.12A2.85,2.85,0,0,1,457.55,142.3Z"/><path class="cls-2" d="M473,152.1c9.94,0,16.17,6.58,16.17,16.45,0,10.15-6.44,16.66-16.45,16.66s-16.11-6.51-16.11-16.45S463.08,152.1,473,152.1ZM473,177.65c4.06,0,6.58-3.43,6.58-8.89,0-5.67-2.66-9-6.72-9s-6.58,3.36-6.58,8.82C466.23,174.22,468.89,177.65,473,177.65Z"/><path class="cls-2" d="M504.94,181.08c0,2.52-1.54,3.78-4.69,3.78s-4.7-1.26-4.7-3.78V156.23c0-2.52,1.47-3.78,4.55-3.78s4.42,1.61,4.35,3.78v1.4a8.81,8.81,0,0,1,8.05-5.25c2.66,0,3.85,1.26,3.85,4.2,0,3.29-1.47,4.2-4.27,4.34-3.85.14-5.75.91-7.14,3.08Z"/><path class="cls-2" d="M529.85,156.23V157c1.68-2.8,5-4.55,9.39-4.55,4.69,0,7.77,2,9.45,5.6,1.75-3.43,5.46-5.6,10.15-5.6,3.92,0,6.86,1.4,8.75,4.34a14.89,14.89,0,0,1,1.89,8.05v16.24c0,2.52-1.54,3.78-4.69,3.78s-4.69-1.26-4.69-3.78v-14.7a6.52,6.52,0,0,0-.91-3.92,4.53,4.53,0,0,0-4.06-1.82,6.19,6.19,0,0,0-5.18,2.45v18c0,2.52-1.54,3.78-4.69,3.78s-4.69-1.26-4.69-3.78V166.31a6.82,6.82,0,0,0-.91-3.85,4.71,4.71,0,0,0-4.07-1.82,6.32,6.32,0,0,0-5.25,2.45v18c0,2.52-1.54,3.78-4.69,3.78S521,183.6,521,181.08V156.23c0-2.52,1.47-3.78,4.55-3.78S529.92,154.06,529.85,156.23Z"/></g></g></svg>