<?xml version="1.0" encoding="utf-8"?>
<!-- Generator: Adobe Illustrator 25.4.1, SVG Export Plug-In . SVG Version: 6.00 Build 0)  -->
<svg version="1.1" id="レイヤー_1" xmlns="http://www.w3.org/2000/svg" xmlns:xlink="http://www.w3.org/1999/xlink" x="0px"
	 y="0px" viewBox="0 0 420 109" style="enable-background:new 0 0 420 109;" xml:space="preserve">
<style type="text/css">
	.st0{fill:#4DD2FF;}
	.st1{enable-background:new    ;}
	.st2{fill:#333333;}
</style>
<polygon class="st0" points="48.8,75.7 16.2,57.4 12.2,59.7 48.8,80.2 85.9,59.3 81.9,57.1 "/>
<polygon class="st0" points="48.8,83.9 28.1,72.3 24,74.6 48.7,88.5 73.8,74.4 69.8,72.1 "/>
<path class="st0" d="M48.5,72.2L0,45l49.2-27.7l48.5,27.2L48.5,72.2z"/>
<g class="st1">
	<path class="st2" d="M113.5,37.4c0-12,9.8-20,23.7-20c6.1,0,12.6,1.7,17.1,4.6c2.8,1.8,3.9,3.3,3.9,5.5c0,3.2-2.8,7.3-6.1,7.3
		c-1.2,0-2.2-0.6-4.5-1.8C144.2,31.2,141,30,137,30c-5.9,0-9.3,3-9.3,6.7c0,10.7,32,8.7,32,31.3c0,13.1-10.5,20.8-24.6,20.8
		c-6.8,0-12.9-1.6-18.3-5.3c-2.7-1.8-4-3.6-4-5.8c0-3.3,3.1-7.3,6.2-7.3c1.5,0,2.7,0.7,4.8,2c3.4,2,6.7,3.9,11.5,3.9
		c6.1,0,10.3-3,10.3-7.5C145.4,56.5,113.5,59.1,113.5,37.4z"/>
	<path class="st2" d="M187.2,50.5c-2.5,0-5.6,0.6-8.8,2.1c-1.8,0.8-3.2,1.5-4.5,1.5c-3.3,0-5.4-3.9-5.4-6.7c0-2,1.2-3.5,3.8-5
		c4.5-2.4,10.1-3.6,16.1-3.6c7.6,0,13.3,1.9,16.5,5.6c2.2,2.7,3.3,6.7,3.3,11.9v26c0,4-1.9,5.8-6.9,5.8c-4.2,0-5.9-1.3-5.9-4.4V83
		c-3.1,3.5-7.4,5.2-13.2,5.2c-9.8,0-15.7-5.3-15.7-13.8c0-9.6,7.6-15,28-16.8v-0.7C194.5,52.8,192.7,50.5,187.2,50.5z M180.9,73.1
		c0,2.4,1.6,4.4,5.6,4.4c2.8,0,5.5-1,8-3v-8.6C185.4,67,180.9,68.9,180.9,73.1z"/>
	<path class="st2" d="M238.1,50.5c-2.5,0-5.6,0.6-8.8,2.1c-1.8,0.8-3.2,1.5-4.5,1.5c-3.3,0-5.4-3.9-5.4-6.7c0-2,1.2-3.5,3.8-5
		c4.5-2.4,10.1-3.6,16.1-3.6c7.6,0,13.3,1.9,16.5,5.6c2.2,2.7,3.3,6.7,3.3,11.9v26c0,4-1.9,5.8-6.9,5.8c-4.2,0-5.9-1.3-5.9-4.4V83
		c-3.1,3.5-7.4,5.2-13.2,5.2c-9.8,0-15.7-5.3-15.7-13.8c0-9.6,7.6-15,28-16.8v-0.7C245.4,52.8,243.6,50.5,238.1,50.5z M231.8,73.1
		c0,2.4,1.6,4.4,5.6,4.4c2.8,0,5.5-1,8-3v-8.6C236.2,67,231.8,68.9,231.8,73.1z"/>
	<path class="st2" d="M269.1,37.4c0-12,9.8-20,23.7-20c6.1,0,12.6,1.7,17.1,4.6c2.8,1.8,3.9,3.3,3.9,5.5c0,3.2-2.8,7.3-6.1,7.3
		c-1.2,0-2.2-0.6-4.5-1.8c-3.5-1.8-6.7-3.1-10.6-3.1c-5.9,0-9.3,3-9.3,6.7c0,10.7,32,8.7,32,31.3c0,13.1-10.5,20.8-24.6,20.8
		c-6.8,0-12.9-1.6-18.3-5.3c-2.7-1.8-4-3.6-4-5.8c0-3.3,3.1-7.3,6.2-7.3c1.5,0,2.7,0.7,4.8,2c3.4,2,6.7,3.9,11.5,3.9
		c6.1,0,10.3-3,10.3-7.5C301,56.5,269.1,59.1,269.1,37.4z"/>
	<path class="st2" d="M355,82.4v-1.2c-2.7,4.4-7.8,7-14.2,7c-5.8,0-10.5-2.1-13.4-6.6c-1.9-3-2.9-7.1-2.9-12.3V44.7
		c0-3.8,2.3-5.7,7.1-5.7c4.8,0,7.1,1.9,7.1,5.7v22.4c0,2.4,0.3,4.6,1.4,5.9c1.3,1.8,3.3,2.8,6.2,2.8c3.3,0,6.2-1.3,8-3.7V44.7
		c0-3.8,2.3-5.7,7.1-5.7c4.8,0,7.1,1.9,7.1,5.7v37.7c0,3.8-2.3,5.7-6.8,5.7C356.7,88.2,354.9,85.8,355,82.4z"/>
	<path class="st2" d="M378.8,53.4c0-8.5,6.7-14.7,19-14.7c6.3,0,10.8,1.4,14.6,3.5c2.4,1.4,3.8,3,3.8,5.1c0,2.7-2.1,6.6-5.6,6.6
		c-1.1,0-2-0.4-4.5-1.5c-3.5-1.5-6.4-2.3-9-2.3c-2.9,0-4.7,1.1-4.7,3c0,6.6,24.6,3.8,24.6,20.5c0,9-7,14.8-19.4,14.8
		c-6.4,0-10.8-1.3-15.3-3.9c-2.5-1.5-3.9-3.2-3.9-5.4c0-2.4,1.9-6.6,5.7-6.6c1.4,0,2.7,0.6,4.2,1.5c3.3,1.7,6.1,3.1,9.8,3.1
		c3.2,0,5.3-1.1,5.3-3.2C403.4,66.9,378.8,69.8,378.8,53.4z"/>
</g>
</svg>
